<svg width="560" height="460" viewBox="0 0 560 460" fill="none" xmlns="http://www.w3.org/2000/svg">
<path d="M156.772 21.4207H48.564V146.463H156.772V21.4207Z" fill="#19C0D7"/>
<path d="M131.307 377.537L127.426 374C127.426 374 93.1436 392.188 97.2251 417.01C97.2198 418.508 97.6725 419.968 98.5175 421.18C99.3625 422.392 100.556 423.292 101.925 423.75C103.294 424.209 104.768 424.201 106.132 423.729C107.497 423.257 108.682 422.345 109.516 421.124C110.349 419.904 110.788 418.439 110.769 416.942C110.75 415.444 110.273 413.992 109.409 412.795C108.544 411.599 107.336 410.72 105.959 410.286C104.583 409.852 103.11 409.886 101.753 410.382C101.753 410.382 104.625 388.537 131.307 377.537Z" fill="#9EA0A3"/>
<path d="M137.432 374.809L127.426 374L120.233 375.954C120.233 375.954 83.4411 389.594 87.3674 417.859C87.3592 419.34 87.7989 420.786 88.6241 421.992C89.4494 423.198 90.6183 424.103 91.9651 424.579C93.312 425.055 94.7684 425.076 96.1279 424.642C97.4874 424.207 98.6809 423.337 99.5392 422.157C100.398 420.976 100.877 419.543 100.91 418.063C100.943 416.582 100.527 415.128 99.7224 413.907C98.9174 412.687 97.7637 411.761 96.425 411.261C95.0862 410.761 93.6304 410.713 92.2639 411.123C92.2639 411.123 98.4605 383.68 130.298 377.261C130.298 377.261 150.019 382.609 153.512 391.595V381.094C153.512 381.094 143.331 377.079 137.432 374.809Z" fill="#E1E1E2"/>
<path d="M87.4062 269.942H155.783V286.782H81.009V276.604C81.0082 275.728 81.1731 274.862 81.4943 274.053C81.8154 273.244 82.2866 272.51 82.8808 271.891C83.475 271.272 84.1806 270.781 84.9571 270.447C85.7336 270.112 86.5659 269.941 87.4062 269.942Z" fill="#19C0D7"/>
<path d="M149.385 303.649H86.9405C85.3657 303.649 83.8553 302.997 82.7418 301.838C81.6282 300.678 81.0026 299.105 81.0026 297.465V286.802H155.783V296.994C155.783 297.868 155.617 298.734 155.296 299.542C154.974 300.35 154.503 301.084 153.909 301.702C153.314 302.32 152.609 302.81 151.833 303.144C151.057 303.478 150.225 303.65 149.385 303.649Z" fill="#E1E1E2"/>
<path d="M113.842 303.413H138.609V326.269C138.609 327.048 138.312 327.795 137.783 328.345C137.254 328.896 136.537 329.206 135.789 329.206H116.682C116.311 329.206 115.945 329.13 115.603 328.982C115.26 328.834 114.949 328.618 114.688 328.345C114.426 328.073 114.218 327.749 114.076 327.393C113.935 327.036 113.862 326.654 113.862 326.269V303.413H113.842Z" fill="#9EA0A3"/>
<path d="M131.326 329.206H121.669V371.037H131.326V329.206Z" fill="#E1E1E2"/>
<path d="M136.035 367.83H116.734C115.83 367.83 115.097 368.593 115.097 369.534V374.256C115.097 375.198 115.83 375.961 116.734 375.961H136.035C136.939 375.961 137.671 375.198 137.671 374.256V369.534C137.671 368.593 136.939 367.83 136.035 367.83Z" fill="#19C0D7"/>
<path d="M347.943 136.466L343.021 166.469C342.519 169.508 341.002 172.264 338.738 174.251C336.473 176.238 333.608 177.327 330.647 177.327H295.149C294.217 177.329 293.295 177.127 292.443 176.736C291.59 176.344 290.825 175.772 290.198 175.054C289.57 174.337 289.094 173.49 288.799 172.57C288.505 171.649 288.398 170.675 288.486 169.709C289.398 159.638 292.807 141.929 305.226 131.313C306.977 129.832 309.168 129.031 311.423 129.05L342.031 129.158C342.904 129.16 343.766 129.361 344.557 129.746C345.349 130.131 346.05 130.691 346.612 131.386C347.175 132.081 347.585 132.896 347.815 133.773C348.045 134.651 348.089 135.57 347.943 136.466Z" fill="#3F4347"/>
<path d="M154.961 336.13L140.505 419.247H195.498L212.833 334.945L211.248 310.614L196.533 302.82L154.961 336.13Z" fill="#505050"/>
<g opacity="0.2">
<path d="M154.961 336.13L150.634 361.033L210.44 346.578L212.833 334.945L211.248 310.614L196.533 302.82L154.961 336.13Z" fill="black"/>
</g>
<path d="M193.829 141.114C193.829 141.114 178.241 138.925 169.774 156.008L154.961 185.39C154.961 185.39 142.969 207.619 163.952 212.025C163.952 212.025 150.906 232.233 149.67 265.476L147.025 318.92C147.025 318.92 145.964 325.898 144.023 333.429C144.023 333.429 143.493 336.184 162.193 336.366H205.576C205.576 336.366 205.401 321.311 204.521 314.326C204.521 314.326 209.457 326.269 209.631 335.086L226.391 334.352C226.391 334.352 220.744 287.698 216.863 269.147C216.863 269.147 211.222 229.107 210.336 216.43C210.336 216.43 203.739 207.262 209.987 195.494C209.987 195.494 216.307 195.494 221.539 192.733C223.443 191.7 225.035 190.139 226.14 188.222C227.245 186.306 227.82 184.109 227.801 181.874V180.46C227.801 180.46 241.074 196.539 254.89 203.18C256.961 204.172 259.217 204.676 261.496 204.658C263.775 204.639 266.023 204.098 268.079 203.073C271.869 201.081 275.356 198.519 278.428 195.467C283.332 190.699 287.426 185.101 290.537 178.91L297.542 165.034L283.959 156.809L260.925 179.429L237.27 157.496C237.27 157.496 227.303 146.718 215.925 144.57L193.829 141.114Z" fill="#19C0D7"/>
<g opacity="0.5">
<path d="M193.829 141.114C193.829 141.114 178.241 138.925 169.774 156.008L154.961 185.39C154.961 185.39 142.969 207.619 163.952 212.025C163.952 212.025 150.906 232.233 149.67 265.476L147.025 318.92C147.025 318.92 145.964 325.898 144.023 333.429C144.023 333.429 143.493 336.184 162.193 336.366H205.576C205.576 336.366 205.401 321.311 204.521 314.326C204.521 314.326 209.457 326.269 209.631 335.086L226.391 334.352C226.391 334.352 220.744 287.698 216.863 269.147C216.863 269.147 211.222 229.107 210.336 216.43C210.336 216.43 203.739 207.262 209.987 195.494C209.987 195.494 216.307 195.494 221.539 192.733C223.443 191.7 225.035 190.139 226.14 188.222C227.245 186.306 227.82 184.109 227.801 181.874V180.46C227.801 180.46 241.074 196.539 254.89 203.18C256.961 204.172 259.217 204.676 261.496 204.658C263.775 204.639 266.023 204.098 268.079 203.073C271.869 201.081 275.356 198.519 278.428 195.467C283.332 190.699 287.426 185.101 290.537 178.91L297.542 165.034L283.959 156.809L260.925 179.429L237.27 157.496C237.27 157.496 227.303 146.718 215.925 144.57L193.829 141.114Z" fill="white"/>
</g>
<path d="M209.987 195.494C209.987 195.494 220.336 195.326 224.819 190.106C224.819 190.106 227.012 194.053 221.332 197.434C221.332 197.434 220.686 198.283 225.213 199.853C225.213 199.853 240.789 204.197 240.44 206.488C239.329 207.252 238.053 207.715 236.727 207.835C236.727 207.835 226.94 217.616 207.193 207.835C207.219 207.808 206.061 202.143 209.987 195.494Z" fill="#F9B499"/>
<path d="M236.74 208.145L226.766 206.575C226.68 206.562 226.603 206.514 226.551 206.441C226.5 206.368 226.478 206.277 226.491 206.188C226.504 206.099 226.55 206.018 226.62 205.965C226.69 205.911 226.777 205.888 226.863 205.902L236.805 207.471C236.89 207.478 236.97 207.521 237.026 207.589C237.082 207.657 237.109 207.746 237.102 207.835C237.095 207.924 237.055 208.007 236.989 208.065C236.924 208.123 236.839 208.152 236.753 208.145H236.74Z" fill="#F7A48B"/>
<g opacity="0.2">
<path d="M210.084 193.413H210.006L165.479 181.584C165.397 181.559 165.328 181.503 165.285 181.427C165.241 181.35 165.228 181.26 165.246 181.174C165.256 181.13 165.274 181.089 165.299 181.053C165.324 181.017 165.356 180.987 165.393 180.964C165.43 180.942 165.471 180.927 165.514 180.921C165.556 180.916 165.599 180.919 165.64 180.931L210.168 192.76C210.254 192.771 210.332 192.818 210.385 192.889C210.437 192.961 210.461 193.051 210.45 193.14C210.438 193.23 210.394 193.311 210.325 193.366C210.257 193.42 210.17 193.445 210.084 193.433V193.413Z" fill="black"/>
</g>
<g opacity="0.2">
<path d="M180.66 185.592H180.543C180.503 185.577 180.466 185.553 180.435 185.522C180.404 185.492 180.379 185.455 180.362 185.414C180.344 185.374 180.335 185.33 180.334 185.285C180.333 185.24 180.34 185.196 180.356 185.155C182.419 179.382 182.859 169.513 182.865 169.412C182.865 169.323 182.9 169.237 182.96 169.174C183.021 169.111 183.103 169.076 183.189 169.076C183.275 169.076 183.357 169.111 183.418 169.174C183.478 169.237 183.512 169.323 183.512 169.412C183.512 169.513 183.072 179.516 180.97 185.363C180.947 185.43 180.904 185.487 180.849 185.528C180.794 185.569 180.728 185.591 180.66 185.592Z" fill="black"/>
</g>
<g opacity="0.2">
<path d="M181.216 183.787C181.171 183.796 181.125 183.796 181.08 183.787L171.682 179.166C171.604 179.128 171.543 179.059 171.514 178.974C171.485 178.889 171.49 178.796 171.527 178.715C171.563 178.634 171.63 178.571 171.711 178.541C171.792 178.51 171.882 178.515 171.96 178.553L181.358 183.181C181.424 183.214 181.477 183.27 181.509 183.339C181.541 183.408 181.549 183.486 181.532 183.56C181.516 183.634 181.476 183.701 181.418 183.748C181.361 183.795 181.289 183.821 181.216 183.821V183.787Z" fill="black"/>
</g>
<g opacity="0.2">
<path d="M183.765 161.41C183.684 161.409 183.608 161.378 183.548 161.322C183.489 161.266 183.451 161.19 183.441 161.107C182.653 155.952 180.131 151.256 176.326 147.857C176.294 147.828 176.267 147.793 176.248 147.754C176.229 147.714 176.217 147.671 176.214 147.627C176.21 147.583 176.216 147.539 176.229 147.497C176.242 147.455 176.263 147.416 176.29 147.382C176.318 147.348 176.352 147.321 176.39 147.301C176.427 147.281 176.469 147.269 176.511 147.265C176.553 147.262 176.596 147.267 176.636 147.281C176.677 147.294 176.714 147.316 176.746 147.345C180.683 150.857 183.291 155.714 184.101 161.046C184.105 161.09 184.101 161.134 184.089 161.177C184.077 161.219 184.056 161.258 184.029 161.292C184.002 161.326 183.969 161.354 183.931 161.374C183.893 161.394 183.852 161.407 183.81 161.41H183.765Z" fill="black"/>
</g>
<g opacity="0.2">
<path d="M217.257 169.749C217.207 169.749 217.158 169.736 217.113 169.713C217.068 169.69 217.029 169.656 216.999 169.614L211.649 162.205C209.573 165.202 204.088 169.473 203.842 169.655C203.799 169.689 203.749 169.711 203.696 169.719C203.643 169.728 203.588 169.722 203.538 169.702C203.489 169.683 203.445 169.651 203.41 169.61C203.375 169.569 203.35 169.52 203.338 169.466C200.323 156.439 185.407 142.374 185.259 142.232C185.229 142.202 185.205 142.165 185.188 142.124C185.172 142.084 185.164 142.04 185.164 141.996C185.164 141.953 185.172 141.909 185.188 141.869C185.205 141.828 185.229 141.791 185.259 141.761C185.289 141.729 185.325 141.704 185.364 141.687C185.403 141.67 185.446 141.661 185.488 141.661C185.531 141.661 185.573 141.67 185.613 141.687C185.652 141.704 185.688 141.729 185.718 141.761C185.867 141.902 200.556 155.752 203.868 168.84C205.246 167.742 209.884 163.943 211.384 161.471C211.414 161.426 211.452 161.39 211.497 161.363C211.542 161.336 211.591 161.32 211.643 161.316C211.695 161.313 211.747 161.325 211.795 161.348C211.842 161.371 211.883 161.407 211.915 161.45L217.173 168.698C218.176 165.559 222.743 151.185 223.085 147.143C223.094 147.055 223.135 146.973 223.2 146.917C223.266 146.86 223.35 146.832 223.435 146.84C223.477 146.843 223.518 146.855 223.556 146.875C223.593 146.896 223.627 146.924 223.654 146.958C223.681 146.991 223.701 147.031 223.714 147.073C223.726 147.115 223.73 147.16 223.726 147.203C223.338 151.764 217.827 168.793 217.587 169.513C217.57 169.572 217.537 169.625 217.493 169.665C217.448 169.706 217.393 169.733 217.335 169.742L217.257 169.749Z" fill="black"/>
</g>
<g opacity="0.2">
<path d="M208.344 187.492H208.279C208.197 187.467 208.127 187.409 208.085 187.331C208.042 187.253 208.031 187.161 208.053 187.074C208.092 186.946 211.481 174.107 211.326 161.659C211.326 161.569 211.36 161.483 211.42 161.419C211.481 161.354 211.563 161.317 211.649 161.316C211.734 161.316 211.815 161.35 211.876 161.412C211.936 161.474 211.971 161.558 211.973 161.646C212.128 174.195 208.739 187.128 208.68 187.243C208.66 187.318 208.615 187.384 208.554 187.429C208.493 187.474 208.419 187.496 208.344 187.492Z" fill="black"/>
</g>
<g opacity="0.2">
<path d="M228.441 161.41C228.399 161.407 228.358 161.396 228.32 161.377C228.282 161.357 228.248 161.33 228.22 161.297C228.192 161.263 228.171 161.225 228.158 161.183C228.145 161.141 228.14 161.097 228.144 161.053C228.441 156.338 228.745 150.578 228.745 150.524C228.746 150.48 228.755 150.435 228.773 150.394C228.791 150.354 228.817 150.317 228.85 150.287C228.882 150.258 228.92 150.235 228.961 150.221C229.002 150.208 229.045 150.203 229.088 150.208C229.173 150.213 229.252 150.253 229.309 150.318C229.366 150.384 229.395 150.47 229.392 150.558C229.392 150.619 229.088 156.398 228.79 161.1C228.787 161.144 228.775 161.187 228.756 161.227C228.737 161.267 228.71 161.302 228.678 161.331C228.645 161.359 228.608 161.381 228.567 161.395C228.526 161.408 228.484 161.414 228.441 161.41Z" fill="black"/>
</g>
<g opacity="0.2">
<path d="M224.819 190.429C224.777 190.43 224.735 190.422 224.697 190.405C224.658 190.389 224.622 190.365 224.592 190.335C224.533 190.272 224.5 190.187 224.5 190.099C224.5 190.011 224.533 189.926 224.592 189.863C227.898 186.32 227.49 180.52 227.484 180.433C227.652 174.512 228.706 171.676 228.777 171.568C228.792 171.527 228.815 171.49 228.844 171.458C228.873 171.426 228.908 171.401 228.947 171.383C228.985 171.366 229.027 171.356 229.069 171.356C229.111 171.355 229.152 171.363 229.191 171.379C229.231 171.394 229.268 171.417 229.299 171.447C229.33 171.477 229.354 171.514 229.371 171.554C229.388 171.595 229.397 171.638 229.397 171.682C229.398 171.726 229.389 171.77 229.373 171.81C229.373 171.844 228.318 174.666 228.157 180.419C228.157 180.628 228.596 186.542 225.084 190.301C225.052 190.342 225.012 190.375 224.966 190.397C224.92 190.419 224.87 190.43 224.819 190.429Z" fill="black"/>
</g>
<g opacity="0.2">
<path d="M169.683 419.584H169.625C169.541 419.567 169.466 419.517 169.416 419.444C169.367 419.371 169.346 419.281 169.36 419.193L180.239 353.752C180.254 353.663 180.302 353.583 180.373 353.53C180.444 353.478 180.532 353.457 180.618 353.472C180.704 353.487 180.78 353.538 180.83 353.611C180.881 353.685 180.901 353.777 180.886 353.866L170.006 419.307C169.992 419.385 169.951 419.455 169.892 419.506C169.833 419.556 169.759 419.584 169.683 419.584Z" fill="black"/>
</g>
<path d="M242.872 268.365H328.823C334.323 268.359 339.654 266.38 343.917 262.76C348.18 259.141 351.117 254.103 352.232 248.494L361.824 199.994C362.179 198.21 362.147 196.366 361.731 194.596C361.316 192.825 360.527 191.174 359.422 189.761C358.317 188.349 356.923 187.21 355.343 186.428C353.762 185.647 352.034 185.241 350.285 185.242H277.768C275.449 185.239 273.2 186.067 271.397 187.586C262.943 194.74 240.026 218.848 242.872 268.365Z" fill="#3F4347"/>
<path d="M204.398 127.527C204.398 127.527 202.05 136.547 193.836 141.114C193.836 141.114 208.765 149.952 211.636 161.646L217.264 139.241L204.398 127.527Z" fill="#F9B499"/>
<path d="M217.257 139.241L215.162 147.601C215.162 147.601 203.9 143.182 204.392 127.527L217.257 139.241Z" fill="#F7A48B"/>
<path d="M204.398 127.527C204.398 127.527 198.085 135.766 190.647 129.11C190.647 129.11 185.472 124.227 192.102 119.936C192.102 119.936 192.238 111.455 202.4 114.978L206.126 121.472L207.102 126.248L204.398 127.527Z" fill="#505050"/>
<path d="M232.799 107.135L228.837 104.197C224.545 101.013 218.588 102.056 215.531 106.525L205.2 121.63C202.143 126.1 203.145 132.304 207.436 135.487L211.398 138.426C215.69 141.609 221.648 140.566 224.704 136.097L235.035 120.992C238.092 116.523 237.091 110.319 232.799 107.135Z" fill="#F9B499"/>
<path d="M203.907 113.314C203.907 113.314 202.542 108.08 206.119 106.72H215.679C215.679 106.72 224.263 100.927 230.77 108.323L230.977 108.229C231.6 107.957 232.275 107.836 232.95 107.875C233.625 107.914 234.282 108.112 234.873 108.455C235.463 108.798 235.971 109.275 236.359 109.852C236.746 110.429 237.002 111.09 237.109 111.785C237.607 114.864 237.206 120.145 231.43 126.248C231.43 126.248 233.823 118.541 231.481 112.654C231.481 112.654 230.77 108.976 221.656 112.654C221.656 112.654 215.621 115.349 213.726 113.624C213.726 113.624 214.082 116.831 210.349 117.571L203.907 113.314Z" fill="#505050"/>
<path d="M206.119 106.72C207.128 103.539 208.455 100.478 210.078 97.5855C210.641 96.6124 211.443 95.8131 212.401 95.2697C213.36 94.7263 214.44 94.4585 215.53 94.4937L229.431 94.9854C230.835 95.0251 232.182 95.5704 233.244 96.5284C234.305 97.4864 235.015 98.7979 235.252 100.24C235.626 103.044 235.626 105.889 235.252 108.693C234.611 108.216 233.856 107.929 233.07 107.864C232.284 107.798 231.495 107.957 230.789 108.323C230.789 108.323 225.809 101.088 215.699 106.72H206.119Z" fill="#19C0D7"/>
<g opacity="0.5">
<path d="M206.119 106.72C207.128 103.539 208.455 100.478 210.078 97.5855C210.641 96.6124 211.443 95.8131 212.401 95.2697C213.36 94.7263 214.44 94.4585 215.53 94.4937L229.431 94.9854C230.835 95.0251 232.182 95.5704 233.244 96.5284C234.305 97.4864 235.015 98.7979 235.252 100.24C235.626 103.044 235.626 105.889 235.252 108.693C234.611 108.216 233.856 107.929 233.07 107.864C232.284 107.798 231.495 107.957 230.789 108.323C230.789 108.323 225.809 101.088 215.699 106.72H206.119Z" fill="white"/>
</g>
<g opacity="0.2">
<path d="M234.955 104.274H207.633C207.547 104.274 207.465 104.239 207.404 104.176C207.343 104.113 207.309 104.027 207.309 103.938C207.309 103.848 207.343 103.763 207.404 103.7C207.465 103.636 207.547 103.601 207.633 103.601H234.948C235.034 103.601 235.116 103.636 235.177 103.7C235.238 103.763 235.272 103.848 235.272 103.938C235.272 104.027 235.238 104.113 235.177 104.176C235.116 104.239 235.034 104.274 234.948 104.274H234.955Z" fill="black"/>
</g>
<path d="M202.393 115.315C202.345 115.315 202.298 115.305 202.254 115.284C202.21 115.263 202.172 115.232 202.141 115.194C201.986 114.992 198.351 110.438 191.067 112.977C190.986 113.006 190.897 113 190.82 112.96C190.743 112.92 190.684 112.85 190.656 112.765C190.629 112.68 190.635 112.588 190.673 112.507C190.712 112.427 190.779 112.366 190.86 112.338C198.59 109.643 202.6 114.715 202.645 114.769C202.698 114.839 202.723 114.928 202.713 115.016C202.703 115.104 202.66 115.185 202.594 115.241C202.538 115.291 202.467 115.317 202.393 115.315Z" fill="#505050"/>
<path d="M206.119 121.472C208.455 121.472 210.349 119.499 210.349 117.066C210.349 114.633 208.455 112.661 206.119 112.661C203.783 112.661 201.889 114.633 201.889 117.066C201.889 119.499 203.783 121.472 206.119 121.472Z" fill="#F9B499"/>
<g opacity="0.2">
<path d="M253.887 183.787C253.829 183.788 253.772 183.772 253.722 183.741C253.671 183.71 253.63 183.666 253.603 183.612C253.581 183.574 253.567 183.531 253.562 183.487C253.556 183.443 253.559 183.399 253.571 183.356C253.582 183.313 253.602 183.273 253.629 183.238C253.655 183.204 253.688 183.175 253.726 183.154L260.763 179.18C260.839 179.137 260.928 179.127 261.01 179.152C261.092 179.177 261.162 179.236 261.203 179.314C261.244 179.393 261.254 179.485 261.23 179.571C261.205 179.657 261.149 179.73 261.074 179.772L254.036 183.78C253.988 183.796 253.937 183.798 253.887 183.787Z" fill="black"/>
</g>
<path d="M333.765 261.191H333.687C333.646 261.18 333.607 261.161 333.573 261.134C333.539 261.108 333.51 261.074 333.489 261.036C333.467 260.998 333.453 260.956 333.447 260.912C333.441 260.868 333.443 260.823 333.454 260.781L350.763 192.989C350.774 192.946 350.792 192.905 350.818 192.87C350.844 192.834 350.876 192.805 350.912 192.782C350.949 192.76 350.989 192.745 351.032 192.739C351.074 192.732 351.117 192.735 351.158 192.746C351.242 192.77 351.313 192.827 351.357 192.905C351.4 192.983 351.412 193.076 351.391 193.164L334.101 260.942C334.082 261.018 334.037 261.084 333.976 261.13C333.914 261.175 333.84 261.197 333.765 261.191Z" fill="white"/>
<path d="M210.336 216.43C210.336 216.43 214.424 216.134 214.457 210.704C211.976 209.936 209.556 208.967 207.219 207.808C207.365 210.951 208.455 213.967 210.336 216.43Z" fill="#19C0D7"/>
<g opacity="0.6">
<path d="M210.336 216.43C210.336 216.43 214.424 216.134 214.457 210.704C211.976 209.936 209.556 208.967 207.219 207.808C207.365 210.951 208.455 213.967 210.336 216.43Z" fill="white"/>
</g>
<g opacity="0.2">
<path d="M163.952 212.025L207.633 215.352C207.652 215.358 207.669 215.37 207.681 215.386C207.693 215.403 207.699 215.423 207.699 215.443C207.699 215.464 207.693 215.484 207.681 215.501C207.669 215.517 207.652 215.529 207.633 215.534C192.078 217.662 176.388 218.516 160.705 218.087C160.705 218.087 162.464 214.43 163.952 212.025Z" fill="black"/>
</g>
<path d="M144.023 419.247V424.353L154.444 427.579L156.772 419.247H144.023Z" fill="#F9B499"/>
<path d="M141.759 434.174C141.759 434.174 140.77 420.345 145.828 423.396L154.444 427.566V434.16L141.759 434.174Z" fill="#19C0D7"/>
<path d="M279.301 434.174H137.678V438.579H279.301V434.174Z" fill="#E1E1E2"/>
<path d="M274.631 434.174L256.145 391.636L269.224 365.917H262.387L292.691 313.827H291.442C291.442 313.827 281.481 329.603 267.988 330.034L222.536 330.465L199.897 365.917L191.177 365.479L157.762 388.611L141.74 434.174H274.631Z" fill="#E1E1E2"/>
<path d="M249.101 389.81H169.677C169.591 389.81 169.509 389.775 169.448 389.711C169.387 389.648 169.353 389.563 169.353 389.473C169.353 389.384 169.387 389.298 169.448 389.235C169.509 389.172 169.591 389.137 169.677 389.137H249.101C249.187 389.137 249.269 389.172 249.33 389.235C249.39 389.298 249.424 389.384 249.424 389.473C249.424 389.563 249.39 389.648 249.33 389.711C249.269 389.775 249.187 389.81 249.101 389.81Z" fill="#9EA0A3"/>
<path d="M222.51 330.465L223.965 328.087H258.292C260.33 328.096 262.341 327.609 264.167 326.667C265.993 325.725 267.582 324.352 268.81 322.658L289.133 294.367L333.765 318.354L299.715 376.614C299.715 376.614 345.977 420.742 358.15 434.174H362.503V438.579H279.301V434.174H274.631L256.145 391.636L269.224 365.917H262.387L292.691 313.827H291.442C291.442 313.827 281.934 329.273 267.988 330.034L222.51 330.465Z" fill="#2E3135"/>
<g opacity="0.2">
<path d="M292.691 313.827C292.691 313.827 290.181 350.404 313.454 353.119L309.774 359.41C309.774 359.41 291.365 354.877 291.016 331.455L291.397 316.037L292.691 313.827Z" fill="black"/>
</g>
<path d="M310.479 343.5C310.434 343.509 310.388 343.509 310.343 343.5C307.607 342.22 306.371 340.657 305.815 339.572C305.505 338.948 305.343 338.255 305.343 337.552C305.272 332.769 310.323 330.923 310.375 330.903C310.457 330.875 310.546 330.881 310.623 330.921C310.7 330.96 310.758 331.03 310.786 331.115C310.813 331.2 310.807 331.293 310.769 331.373C310.731 331.453 310.664 331.514 310.582 331.543C310.537 331.543 305.925 333.254 305.99 337.538C305.988 338.131 306.124 338.715 306.384 339.242C306.895 340.239 308.034 341.674 310.608 342.873C310.686 342.91 310.747 342.977 310.778 343.06C310.81 343.143 310.809 343.235 310.776 343.318C310.747 343.373 310.704 343.419 310.651 343.451C310.599 343.483 310.539 343.5 310.479 343.5Z" fill="white"/>
<g opacity="0.2">
<path d="M331.087 322.968L285.983 298.785L289.159 294.373L333.784 318.36L331.087 322.968Z" fill="black"/>
</g>
<g opacity="0.2">
<path d="M292.516 434.174L279.12 405.613C277.718 402.66 276.719 399.518 276.151 396.277C275.252 390.888 275.395 384.152 281.539 383.188C281.539 383.188 269.78 381.639 271.973 395.138C272.343 397.367 272.996 399.535 273.913 401.585L288.318 434.174H292.516Z" fill="black"/>
</g>
<path d="M299.715 376.951C299.652 376.95 299.589 376.931 299.534 376.897C299.411 376.809 286.669 368.248 271.649 365.52C271.607 365.512 271.567 365.496 271.531 365.473C271.495 365.449 271.463 365.418 271.439 365.382C271.414 365.346 271.396 365.305 271.387 365.261C271.378 365.218 271.377 365.173 271.384 365.129C271.391 365.085 271.407 365.044 271.429 365.006C271.452 364.969 271.482 364.937 271.517 364.911C271.552 364.886 271.591 364.869 271.633 364.86C271.675 364.851 271.718 364.851 271.759 364.86C286.915 367.608 299.761 376.244 299.89 376.311C299.962 376.359 300.013 376.435 300.031 376.522C300.049 376.61 300.033 376.701 299.987 376.776C299.96 376.827 299.92 376.869 299.873 376.9C299.825 376.93 299.771 376.948 299.715 376.951Z" fill="white"/>
<path d="M289.133 294.367L268.81 322.658C267.617 324.386 266.038 325.785 264.211 326.737C262.383 327.689 260.361 328.164 258.318 328.121L141.125 327.939C140.418 327.939 139.726 327.727 139.131 327.329C138.536 326.931 138.063 326.363 137.769 325.693C137.475 325.024 137.371 324.28 137.471 323.551C137.571 322.822 137.869 322.138 138.331 321.58L165.886 288.21C168.803 284.676 172.381 281.798 176.401 279.752C180.421 277.705 184.8 276.533 189.269 276.307L231.766 274.131L280.129 277.116C280.129 277.116 289.45 274.852 300.065 281.918L345.058 309.442C346.39 310.255 347.404 311.53 347.923 313.044C348.442 314.557 348.433 316.213 347.898 317.721C347.575 318.635 347.068 319.467 346.412 320.162C345.755 320.856 344.964 321.396 344.091 321.746C343.217 322.096 342.282 322.248 341.348 322.192C340.414 322.135 339.502 321.872 338.674 321.419L289.133 294.367Z" fill="#3F4347"/>
<path d="M323.228 239.36C322.742 239.36 322.277 239.159 321.933 238.801C321.59 238.444 321.397 237.959 321.397 237.453V231.856C321.397 231.35 321.59 230.865 321.933 230.508C322.277 230.15 322.742 229.949 323.228 229.949H348.085C348.478 229.949 348.868 230.03 349.23 230.187C349.593 230.344 349.923 230.574 350.201 230.863C350.478 231.153 350.698 231.497 350.848 231.875C350.998 232.254 351.075 232.659 351.074 233.068V241.091C351.075 241.398 351.017 241.703 350.905 241.987C350.792 242.272 350.627 242.53 350.419 242.748C350.21 242.966 349.962 243.139 349.69 243.257C349.417 243.374 349.125 243.435 348.829 243.435C348.104 242.171 347.072 241.128 345.836 240.413C344.6 239.697 343.205 239.334 341.792 239.36H323.228Z" fill="#9EA0A3"/>
<path d="M332.393 169.749C332.351 169.747 332.309 169.737 332.27 169.718C332.232 169.7 332.197 169.674 332.168 169.641C332.139 169.609 332.117 169.57 332.102 169.529C332.088 169.487 332.081 169.443 332.083 169.399C332.775 150.538 338.59 140.939 338.648 140.845C338.696 140.775 338.769 140.727 338.85 140.711C338.932 140.695 339.016 140.712 339.085 140.758C339.155 140.805 339.205 140.878 339.225 140.961C339.244 141.045 339.232 141.133 339.191 141.208C339.133 141.303 333.415 150.767 332.723 169.426C332.72 169.514 332.683 169.597 332.622 169.658C332.56 169.718 332.478 169.751 332.393 169.749Z" fill="white"/>
<path d="M251.662 318.441H155.783C155.697 318.441 155.615 318.406 155.554 318.343C155.493 318.28 155.459 318.194 155.459 318.105C155.459 318.015 155.493 317.93 155.554 317.866C155.615 317.803 155.697 317.768 155.783 317.768H251.662C253.397 317.776 255.111 317.371 256.672 316.584C258.234 315.797 259.602 314.649 260.673 313.228L283.027 283.548C283.083 283.48 283.161 283.436 283.246 283.426C283.332 283.416 283.418 283.441 283.486 283.495C283.553 283.55 283.596 283.631 283.606 283.719C283.615 283.808 283.591 283.896 283.538 283.966L261.184 313.645C260.052 315.146 258.606 316.359 256.956 317.19C255.306 318.021 253.495 318.449 251.662 318.441Z" fill="white"/>
<path d="M301.798 201.483C297.944 201.638 294.191 202.803 290.884 204.869C287.577 206.935 284.823 209.837 282.878 213.305L274.677 227.989L266.494 222.176C266.494 222.176 262.135 230.394 255.983 232.28L267.141 247.483L320.828 265.105C320.828 265.105 324.968 259.905 324.178 248.689C323.633 247.867 323.305 246.91 323.228 245.914V239.36C322.985 239.369 322.743 239.326 322.517 239.234C322.29 239.141 322.085 239.001 321.913 238.822C321.741 238.643 321.607 238.43 321.518 238.194C321.429 237.958 321.388 237.706 321.397 237.453V231.856C321.397 231.856 321.352 230.36 323.228 229.949H347.633C347.633 229.949 358.48 227.518 353.823 216.1C353.167 214.47 352.147 213.027 350.847 211.89C348.26 209.62 342.646 205.753 333.279 203.638C332.174 203.467 331.103 203.108 330.11 202.574C329.528 202.27 328.983 201.894 328.486 201.456C327.982 201.031 326.287 200.183 319.981 200.829L314.36 205.996L302.717 204.649L301.798 201.483Z" fill="#19C0D7"/>
<path d="M260.401 249.235C260.401 249.235 233.525 242.445 225.847 255.048C225.847 255.048 212.962 270.447 206.915 286.438C206.915 286.438 222.238 288.129 231.662 297.943L237.387 288.749C237.387 288.749 234.36 285.475 238.195 284.262C238.195 284.262 248.085 281.716 261.481 295.653L276.96 276.886L280.162 277.082C280.162 277.082 288.422 274.744 300.097 281.885L314.405 290.642C314.405 290.642 324.573 288.816 323.532 275.997C323.136 271.714 321.645 267.619 319.214 264.14C316.783 260.66 313.501 257.923 309.709 256.213C304.109 253.714 298.299 251.757 292.354 250.367C292.354 250.367 267.71 241.313 260.401 249.235Z" fill="#505050"/>
<g opacity="0.2">
<path d="M226.08 293.316C226.08 293.316 251.701 253.95 260.401 249.235C260.401 249.235 248.473 259.824 238.176 284.262C238.176 284.262 234.379 285.347 237.367 288.749L231.662 297.957C229.991 296.177 228.117 294.619 226.08 293.316Z" fill="black"/>
</g>
<path d="M250.019 286.788C250.019 286.788 249.03 289.719 243.855 292.454C243.855 292.454 241.423 291.106 237.387 288.749C237.387 288.749 234.871 286.216 237.206 284.619C237.815 284.226 238.514 284.008 239.23 283.986C240.944 283.892 244.896 284.074 250.019 286.788Z" fill="#505050"/>
<g opacity="0.4">
<path d="M250.019 286.788C250.019 286.788 249.03 289.719 243.855 292.454C243.855 292.454 241.423 291.106 237.387 288.749C237.387 288.749 234.871 286.216 237.206 284.619C237.815 284.226 238.514 284.008 239.23 283.986C240.944 283.892 244.896 284.074 250.019 286.788Z" fill="black"/>
</g>
<path d="M260.181 294.367L253.48 301.581L246.242 297.169C246.242 297.169 249.34 293.019 245.815 291.248C245.815 291.248 249.418 288.27 250.019 286.782C253.832 288.626 257.279 291.199 260.181 294.367Z" fill="#F9B499"/>
<path d="M196.281 291.221C195.398 291.578 194.624 292.178 194.041 292.956C193.458 293.733 193.088 294.661 192.969 295.64C192.969 295.64 214.858 297.081 222.316 309.954C222.316 309.954 224.36 308.048 224.14 305.461C224.14 305.461 220.485 295.633 196.281 291.221Z" fill="white"/>
<path d="M192.969 295.64C192.969 295.64 187.937 303.049 207.684 306.525C209.697 307.029 211.606 307.908 213.318 309.119C213.318 309.119 218.655 313.16 222.316 309.954C222.316 309.954 219.243 303.373 208.564 299.277C203.542 297.356 198.298 296.133 192.969 295.64Z" fill="#505050"/>
<path d="M206.294 286.755C205.809 287.428 205.712 288.547 207.691 290.237L215.116 292.454L216.908 289.853V288.627C216.908 288.627 213.849 287.031 208.053 286.074C207.728 286.01 207.393 286.04 207.083 286.16C206.773 286.28 206.5 286.485 206.294 286.755Z" fill="#505050"/>
<g opacity="0.2">
<path d="M206.294 286.755C205.809 287.428 205.712 288.547 207.691 290.237L215.116 292.454L216.908 289.853V288.627C216.908 288.627 213.849 287.031 208.053 286.074C207.728 286.01 207.393 286.04 207.083 286.16C206.773 286.28 206.5 286.485 206.294 286.755Z" fill="black"/>
</g>
<path d="M216.908 288.627V297.243L221.19 300.611L225.323 292.844C225.323 292.844 220.66 289.86 216.908 288.627Z" fill="#F9B499"/>
<g opacity="0.2">
<path d="M327.898 220.378C327.898 220.378 328.959 217.636 332.898 218.761C333.883 219.057 334.817 219.511 335.666 220.108C337.659 221.455 341.274 224.419 340.233 227.518L333.765 226.972L327.898 220.378Z" fill="black"/>
</g>
<g opacity="0.2">
<path d="M329.974 218.976C329.912 218.976 329.851 218.957 329.799 218.922C329.746 218.888 329.704 218.839 329.677 218.781C329.659 218.74 329.65 218.697 329.649 218.652C329.649 218.608 329.656 218.564 329.672 218.522C329.687 218.481 329.711 218.443 329.74 218.411C329.77 218.38 329.806 218.354 329.845 218.336L342.303 212.591C342.381 212.554 342.47 212.551 342.55 212.583C342.63 212.615 342.694 212.678 342.73 212.759C342.747 212.8 342.756 212.843 342.757 212.888C342.758 212.932 342.75 212.976 342.734 213.018C342.719 213.059 342.695 213.097 342.666 213.129C342.636 213.161 342.601 213.186 342.561 213.204L330.103 218.923C330.065 218.951 330.021 218.97 329.974 218.976Z" fill="black"/>
</g>
<g opacity="0.2">
<path d="M276.475 250.892C276.433 250.889 276.391 250.878 276.353 250.859C276.315 250.839 276.281 250.812 276.254 250.779C276.226 250.746 276.205 250.707 276.192 250.665C276.179 250.623 276.174 250.579 276.177 250.535C277.264 236.133 283.415 221.381 283.473 221.233C283.509 221.152 283.573 221.088 283.653 221.055C283.733 221.023 283.821 221.024 283.9 221.058C283.94 221.075 283.975 221.101 284.005 221.133C284.034 221.165 284.058 221.202 284.073 221.244C284.089 221.285 284.097 221.329 284.096 221.374C284.095 221.418 284.086 221.462 284.069 221.502C284.01 221.651 277.898 236.322 276.818 250.589C276.809 250.676 276.769 250.756 276.705 250.813C276.641 250.869 276.559 250.898 276.475 250.892Z" fill="black"/>
</g>
<path d="M256.255 228.218C256.255 228.218 254.916 230.839 255.957 232.26C257.501 231.842 258.928 231.05 260.123 229.949C258.788 229.49 257.494 228.91 256.255 228.218Z" fill="#19C0D7"/>
<g opacity="0.2">
<path d="M256.255 228.218C256.255 228.218 254.916 230.839 255.957 232.26C257.501 231.842 258.928 231.05 260.123 229.949C258.788 229.49 257.494 228.91 256.255 228.218Z" fill="black"/>
</g>
<path d="M291.119 179.341C291.044 179.341 290.972 179.315 290.914 179.265C290.857 179.216 290.817 179.148 290.802 179.072C290.705 178.567 288.383 166.684 295.589 161.962C295.625 161.939 295.665 161.923 295.707 161.916C295.749 161.908 295.792 161.91 295.833 161.92C295.875 161.93 295.914 161.948 295.948 161.974C295.983 162 296.012 162.032 296.035 162.07C296.057 162.108 296.073 162.149 296.08 162.193C296.087 162.237 296.085 162.282 296.076 162.325C296.066 162.368 296.048 162.409 296.024 162.445C295.999 162.481 295.968 162.511 295.931 162.535C289.114 167.001 291.404 178.816 291.436 178.93C291.445 178.974 291.447 179.019 291.439 179.063C291.432 179.106 291.417 179.148 291.394 179.186C291.371 179.223 291.341 179.256 291.306 179.281C291.271 179.307 291.232 179.325 291.19 179.335L291.119 179.341Z" fill="#505050"/>
<path d="M325.854 331.927H411.837C412.891 331.927 413.935 331.711 414.909 331.291C415.883 330.871 416.768 330.255 417.513 329.478C418.258 328.702 418.85 327.781 419.253 326.766C419.657 325.752 419.864 324.665 419.864 323.567V234.355H430.026V324.861C430.027 327.264 429.573 329.645 428.69 331.866C427.807 334.087 426.512 336.105 424.88 337.804C423.248 339.504 421.311 340.852 419.178 341.771C417.045 342.691 414.76 343.164 412.451 343.163H319.308L325.854 331.927Z" fill="#2E3135"/>
<path d="M414.088 237.878L433.648 212.9H457.245V237.878H414.088Z" fill="#9EA0A3"/>
<path d="M442.38 209.128H417.736V212.894H442.38V209.128Z" fill="#E1E1E2"/>
<path d="M443.331 210.118H413.409L424.838 192.605H453.422L443.331 210.118Z" fill="#19C0D7"/>
<path d="M443.331 210.118H446.766L456.643 192.605H453.422L443.331 210.118Z" fill="#9EA0A3"/>
<path d="M446.326 196.909L440.918 207.148H429.508L435.213 196.909H446.326Z" fill="white"/>
<path d="M424.541 196.909H431.268L430.058 198.923H423.001L424.541 196.909Z" fill="white"/>
<path d="M422.244 201.025H428.972L427.768 203.039H420.711L422.244 201.025Z" fill="white"/>
<path d="M420.408 205.073H427.135L425.925 207.094H418.868L420.408 205.073Z" fill="white"/>
<path d="M430.032 246.19H419.864V256.005H430.032V246.19Z" fill="#E1E1E2"/>
<path d="M432.639 282.491H415.951V305.286H432.639V282.491Z" fill="#3F4347"/>
<path d="M493.648 276.327C493.646 282.125 491.434 287.685 487.496 291.784C483.559 295.883 478.219 298.186 472.652 298.186H432.639V290.157H470.679C474.534 290.157 478.231 288.562 480.956 285.723C483.682 282.885 485.213 279.035 485.213 275.021V41.7637C485.213 39.7985 484.464 37.9138 483.129 36.5242C481.795 35.1347 479.985 34.354 478.098 34.354H293.092C292.476 34.3549 291.867 34.2294 291.298 33.9847C290.729 33.74 290.212 33.3809 289.776 32.928C289.341 32.475 288.995 31.9371 288.759 31.3449C288.524 30.7528 288.402 30.1181 288.402 29.4771C288.401 28.8355 288.522 28.2 288.758 27.6071C288.993 27.0142 289.338 26.4755 289.774 26.0218C290.21 25.5682 290.727 25.2085 291.296 24.9634C291.866 24.7182 292.476 24.5925 293.092 24.5934H486.559C488.446 24.5934 490.256 25.3741 491.59 26.7637C492.924 28.1533 493.674 30.0379 493.674 32.0031L493.648 276.327Z" fill="#3F4347"/>
<path d="M388.286 367.056C388.096 367.057 387.908 367.017 387.733 366.939C387.559 366.862 387.401 366.748 387.27 366.604C372.943 351.361 381.138 242.479 381.494 237.851C381.497 237.807 381.509 237.763 381.528 237.724C381.548 237.684 381.574 237.649 381.607 237.62C381.639 237.591 381.677 237.57 381.718 237.556C381.758 237.542 381.801 237.537 381.843 237.541C381.886 237.544 381.927 237.557 381.965 237.577C382.003 237.597 382.037 237.625 382.065 237.658C382.093 237.692 382.114 237.731 382.127 237.774C382.14 237.816 382.145 237.86 382.141 237.905C382.05 239.036 373.609 351.111 387.73 366.139C387.829 366.246 387.955 366.321 388.093 366.358C388.231 366.395 388.376 366.392 388.512 366.348C388.652 366.307 388.778 366.227 388.878 366.117C388.977 366.006 389.045 365.87 389.075 365.722C390.207 360.333 393.816 339.606 392.846 301.103C392.846 301.103 390.55 253.276 389.832 237.891C389.828 237.803 389.858 237.717 389.915 237.651C389.972 237.586 390.051 237.546 390.136 237.541C390.179 237.536 390.223 237.541 390.265 237.555C390.306 237.569 390.344 237.592 390.377 237.623C390.409 237.653 390.435 237.691 390.452 237.732C390.47 237.774 390.479 237.819 390.479 237.864C391.197 253.276 393.493 301.103 393.493 301.103C394.463 339.687 390.841 360.447 389.709 365.89C389.653 366.157 389.529 366.402 389.35 366.601C389.172 366.801 388.945 366.946 388.693 367.022C388.56 367.052 388.423 367.064 388.286 367.056Z" fill="#19C0D7"/>
<path d="M391.113 381.936C390.753 381.938 390.4 381.83 390.098 381.627C389.796 381.424 389.557 381.133 389.411 380.79C381.164 361.525 385.75 242.93 385.944 237.891C385.944 237.802 385.978 237.716 386.039 237.653C386.1 237.59 386.182 237.555 386.268 237.555C386.354 237.555 386.436 237.59 386.497 237.653C386.557 237.716 386.591 237.802 386.591 237.891C386.546 239.124 381.818 361.364 390.007 380.487C390.102 380.732 390.269 380.938 390.484 381.078C390.699 381.217 390.951 381.281 391.203 381.262C391.457 381.248 391.7 381.151 391.899 380.986C392.097 380.82 392.241 380.594 392.309 380.339C394.47 372.647 399.554 349.946 400.175 305.313L398.991 237.912C398.99 237.867 398.998 237.823 399.013 237.782C399.029 237.741 399.052 237.703 399.081 237.671C399.111 237.639 399.146 237.614 399.185 237.596C399.224 237.578 399.265 237.569 399.308 237.568C399.351 237.563 399.395 237.568 399.437 237.582C399.478 237.597 399.516 237.621 399.547 237.652C399.579 237.684 399.603 237.722 399.619 237.765C399.634 237.807 399.641 237.853 399.638 237.898L400.821 305.313C400.175 350.034 395.097 372.808 392.93 380.528C392.822 380.914 392.603 381.256 392.302 381.508C392.001 381.759 391.634 381.909 391.248 381.936H391.113Z" fill="#19C0D7"/>
<path d="M401.365 367.837H401.145C400.434 367.802 399.742 367.586 399.129 367.208C398.517 366.83 398.003 366.301 397.633 365.668C391.928 355.961 391.468 329.233 391.455 328.101C386.637 277.358 396.378 238.996 396.475 238.612C396.497 238.523 396.553 238.446 396.629 238.4C396.705 238.353 396.797 238.34 396.882 238.363C396.968 238.386 397.041 238.444 397.086 238.523C397.131 238.603 397.144 238.698 397.122 238.787C397.018 239.171 387.309 277.419 392.115 328.06C392.115 328.364 392.594 355.766 398.202 365.318C398.518 365.858 398.956 366.309 399.478 366.632C400 366.955 400.59 367.139 401.197 367.17C401.788 367.206 402.378 367.088 402.913 366.825C403.449 366.563 403.913 366.165 404.263 365.668C407.109 361.714 410.602 351.94 411.048 327.831C411.122 323.619 410.989 319.406 410.647 315.208C409.353 298.967 405.847 258.935 401.941 237.945C401.925 237.858 401.944 237.768 401.993 237.694C402.041 237.621 402.115 237.571 402.199 237.555C402.241 237.546 402.284 237.546 402.326 237.555C402.367 237.564 402.407 237.581 402.442 237.606C402.477 237.632 402.507 237.664 402.529 237.701C402.552 237.739 402.567 237.78 402.574 237.824C406.455 258.841 409.974 298.9 411.287 315.154C411.634 319.374 411.77 323.61 411.695 327.845C411.248 352.135 407.684 362.044 404.78 366.072C404.385 366.627 403.87 367.076 403.276 367.382C402.683 367.689 402.028 367.845 401.365 367.837Z" fill="#19C0D7"/>
<path d="M408.15 365.553C407.011 365.497 405.926 365.033 405.078 364.24C401.197 360.973 396.552 350.808 396.552 320.947L396.462 237.878C396.462 237.789 396.496 237.703 396.557 237.64C396.617 237.577 396.699 237.541 396.785 237.541C396.871 237.541 396.953 237.577 397.014 237.64C397.075 237.703 397.109 237.789 397.109 237.878L397.199 320.947C397.199 352 402.374 361.047 405.44 363.681C407.109 365.102 408.357 364.866 408.409 364.86C431.695 359.956 411.294 239.158 411.087 237.938C411.071 237.851 411.09 237.761 411.139 237.688C411.187 237.614 411.261 237.564 411.345 237.548C411.429 237.534 411.515 237.554 411.585 237.604C411.655 237.654 411.703 237.731 411.721 237.817C412.581 242.822 432.458 360.488 408.538 365.52C408.41 365.542 408.28 365.553 408.15 365.553Z" fill="#19C0D7"/>
<path d="M504.114 239.932H495.356V241.084H504.114V239.932Z" fill="#505050"/>
<path d="M495.97 241.084L496.384 247.51H502.937L503.422 241.084H495.97Z" fill="#505050"/>
<path d="M488.875 239.932H480.116V241.084H488.875V239.932Z" fill="#19C0D7"/>
<path d="M480.737 241.084L481.151 247.51H487.704L488.182 241.084H480.737Z" fill="#19C0D7"/>
<path d="M469.897 236.49V234.119H466.481V236.49C465.984 236.49 465.507 236.696 465.155 237.062C464.803 237.429 464.605 237.926 464.605 238.444V247.51H471.772V238.457C471.772 237.939 471.575 237.442 471.223 237.076C470.871 236.709 470.394 236.504 469.897 236.504V236.49Z" fill="#9EA0A3"/>
<path d="M470.466 231.532H465.828C465.646 231.532 465.498 231.686 465.498 231.876V233.776C465.498 233.965 465.646 234.119 465.828 234.119H470.466C470.648 234.119 470.796 233.965 470.796 233.776V231.876C470.796 231.686 470.648 231.532 470.466 231.532Z" fill="#19C0D7"/>
<path d="M466.365 244.466C466.322 244.466 466.281 244.448 466.251 244.416C466.22 244.385 466.203 244.342 466.203 244.297V238.599C466.203 238.554 466.22 238.511 466.251 238.48C466.281 238.448 466.322 238.43 466.365 238.43C466.408 238.43 466.449 238.448 466.479 238.48C466.509 238.511 466.527 238.554 466.527 238.599V244.297C466.527 244.342 466.509 244.385 466.479 244.416C466.449 244.448 466.408 244.466 466.365 244.466Z" fill="white"/>
<path d="M316.669 33.2493H310.893V43.6161H316.669V33.2493Z" fill="#3F4347"/>
<path d="M281.824 77.9297C281.824 77.9297 284.605 41.9523 313.778 41.1238C313.778 41.1238 342.743 38.0184 346.928 77.9297H281.824Z" fill="#19C0D7"/>
<g opacity="0.5">
<path d="M291.979 62.275C291.979 62.275 311.688 52.117 336.572 62.275C336.572 62.275 313.875 29.7196 291.979 62.275Z" fill="white"/>
</g>
<path d="M302.348 196.458V199.442C302.352 200.039 302.221 200.629 301.967 201.164C301.714 201.7 301.343 202.166 300.886 202.527C299.055 203.931 296.894 204.794 294.631 205.026C294.631 205.026 305.744 220 324.179 202.251C324.179 202.251 317.277 201.294 316.643 196.458L315.653 189.439L302.348 196.458Z" fill="#F9B499"/>
<path d="M302.348 196.458V199.442C302.383 200.16 302.19 200.87 301.798 201.463C301.798 201.463 311.009 204.656 314.36 191.978L302.348 196.458Z" fill="#F7A48B"/>
<path d="M293.545 191.305C292.698 192.75 292.409 194.476 292.736 196.134C292.736 196.134 289.107 198.674 292.529 203.921C295.425 202.452 298.58 201.622 301.798 201.483C302.155 200.874 302.345 200.175 302.348 199.462V197.556C300.534 197.237 298.809 196.513 297.289 195.434C295.77 194.355 294.492 192.946 293.545 191.305Z" fill="#505050"/>
<path d="M315.063 162.804L310.356 160.876C305.256 158.787 299.496 161.399 297.49 166.71L291.567 182.394C289.561 187.705 292.069 193.703 297.169 195.792L301.876 197.72C306.976 199.809 312.736 197.197 314.742 191.886L320.665 176.202C322.671 170.891 320.163 164.893 315.063 162.804Z" fill="#F9B499"/>
<path d="M293.752 176.613C293.752 176.613 291.067 171.339 294.437 164.394C295.054 163.062 295.919 161.87 296.982 160.889C298.045 159.907 299.284 159.155 300.627 158.675C301.52 158.323 302.479 158.188 303.43 158.282C304.381 158.375 305.298 158.694 306.113 159.214C306.113 159.214 314.062 155.974 318.247 163.417C318.247 163.417 327.658 162.845 327.477 173.144C327.477 173.144 327.199 183.7 331.507 189.439C331.507 189.439 338.816 198.196 333.784 203.76C333.784 203.76 330.304 203.187 328.486 201.456C328.486 201.456 327.251 200.189 319.981 200.829C319.981 200.829 317.05 199.361 316.643 196.458L315.653 189.439L317.859 183.592C317.859 183.592 308.499 175.812 303.887 168.591C303.891 169.771 304.16 170.935 304.674 171.988C305.187 173.04 305.93 173.953 306.843 174.653C306.843 174.653 301.1 172.632 303.195 166.954C303.195 166.96 297.969 164.589 293.752 176.613Z" fill="#505050"/>
<path d="M320.546 189.161C322.225 186.888 322.393 184.089 320.92 182.909C319.448 181.73 316.893 182.616 315.214 184.89C313.534 187.163 313.366 189.962 314.839 191.142C316.311 192.322 318.866 191.435 320.546 189.161Z" fill="#F9B499"/>
<path d="M260.123 229.949C260.123 229.949 250.272 226.406 252.089 222.998C252.089 222.998 247.794 219.751 250.608 217.144C250.262 216.903 249.972 216.584 249.759 216.211C249.547 215.838 249.417 215.421 249.379 214.989C249.337 214.44 249.504 213.896 249.842 213.473C250.18 213.05 250.664 212.782 251.19 212.725C252.743 212.537 255.718 213.096 260.944 216.814C260.868 216.128 260.979 215.433 261.265 214.81C261.551 214.186 262 213.66 262.561 213.291C262.69 213.208 262.837 213.163 262.987 213.159C263.138 213.155 263.287 213.193 263.419 213.27C263.551 213.346 263.661 213.457 263.737 213.593C263.814 213.728 263.855 213.882 263.855 214.039V218.491C263.855 218.491 266.294 220.081 266.442 222.176C266.494 222.176 263.984 227.396 260.123 229.949Z" fill="#F9B499"/>
<path d="M255.957 222.513H255.906C255.863 222.507 255.823 222.493 255.786 222.47C255.749 222.447 255.718 222.417 255.693 222.381C255.668 222.345 255.65 222.304 255.641 222.261C255.632 222.217 255.632 222.172 255.64 222.129C256.533 216.538 260.886 216.484 260.944 216.484C261.03 216.484 261.112 216.52 261.173 216.583C261.234 216.646 261.268 216.732 261.268 216.821C261.268 216.91 261.234 216.996 261.173 217.059C261.112 217.122 261.03 217.158 260.944 217.158C260.789 217.158 257.063 217.225 256.274 222.237C256.262 222.315 256.223 222.385 256.165 222.436C256.107 222.487 256.033 222.514 255.957 222.513Z" fill="#F7A48B"/>
<path d="M330.679 220.802C329.583 220.284 328.337 220.229 327.202 220.647C326.067 221.065 325.132 221.924 324.592 223.045C323.895 224.678 323.435 226.41 323.228 228.185C323.228 228.185 322.439 234.874 324.864 234.752C324.864 234.752 326.074 235.379 326.32 229.949C326.32 229.949 328.318 228.858 328.984 231.559C329.039 231.781 329.08 232.006 329.107 232.233C329.592 235.769 329.605 237.285 332.393 235.641C332.393 235.641 336.197 236.201 336.624 231.021C336.646 230.733 336.77 230.465 336.973 230.268C337.175 230.072 337.44 229.96 337.717 229.956C337.866 229.957 338.013 229.989 338.15 230.05C338.286 230.111 338.41 230.2 338.513 230.312C338.616 230.424 338.697 230.556 338.75 230.701C338.803 230.846 338.828 231 338.823 231.155C338.785 231.831 338.824 232.51 338.939 233.176C338.971 233.346 339.05 233.503 339.165 233.629C339.28 233.754 339.427 233.842 339.589 233.883C339.751 233.924 339.921 233.916 340.078 233.86C340.236 233.804 340.375 233.702 340.479 233.567C340.88 233.001 341.19 231.964 340.996 230.057C340.888 229.041 340.571 228.06 340.068 227.181C339.565 226.303 338.886 225.547 338.079 224.965C335.745 223.336 333.267 221.942 330.679 220.802Z" fill="#F9B499"/>
<path d="M332.393 235.972C332.351 235.968 332.309 235.956 332.271 235.936C332.233 235.916 332.2 235.888 332.172 235.854C332.144 235.82 332.123 235.781 332.11 235.739C332.097 235.697 332.092 235.652 332.096 235.608C332.173 233.404 331.906 231.202 331.307 229.087C331.284 229.002 331.295 228.91 331.336 228.832C331.377 228.754 331.445 228.696 331.527 228.67C331.609 228.645 331.697 228.655 331.773 228.698C331.848 228.741 331.904 228.813 331.928 228.899C332.556 231.081 332.829 233.358 332.736 235.635C332.737 235.681 332.729 235.727 332.712 235.77C332.695 235.812 332.669 235.851 332.637 235.883C332.604 235.914 332.566 235.939 332.524 235.954C332.482 235.969 332.438 235.975 332.393 235.972Z" fill="#F7A48B"/>
<path d="M217.335 290.022C215.913 289.43 214.342 289.352 212.872 289.8C212.333 289.984 211.779 290.113 211.216 290.183C208.949 290.442 206.655 290.264 204.45 289.658C204.45 289.658 199.043 287.489 196.261 291.221C196.261 291.221 218.053 294.34 224.12 305.461C224.69 304.768 225.072 303.93 225.226 303.032C225.381 302.135 225.303 301.211 225 300.355L217.762 295.943C217.762 295.943 220.88 291.793 217.335 290.022Z" fill="#19C0D7"/>
<path d="M221.43 296.872C221.43 296.872 216.397 304.282 236.145 307.758C238.158 308.26 240.067 309.139 241.779 310.351C241.779 310.351 247.115 314.393 250.776 311.187C250.776 311.187 247.704 304.605 237.025 300.51C232.002 298.588 226.759 297.365 221.43 296.872Z" fill="#505050"/>
<path d="M245.796 291.255C245.796 291.255 244.657 289.907 241.818 290.85C240.855 291.191 239.856 291.404 238.842 291.484C236.847 291.635 234.842 291.435 232.911 290.891C232.911 290.891 227.503 288.722 224.722 292.454C224.722 292.454 246.514 295.572 252.581 306.694C253.15 306.001 253.532 305.163 253.687 304.265C253.841 303.368 253.763 302.443 253.461 301.588L246.223 297.176C246.223 297.176 249.34 293.019 245.796 291.255Z" fill="#19C0D7"/>
<path d="M224.741 292.454C223.858 292.811 223.084 293.41 222.501 294.188C221.918 294.966 221.548 295.893 221.43 296.872C221.43 296.872 243.318 298.314 250.776 311.187C250.776 311.187 252.82 309.28 252.6 306.694C252.6 306.694 248.946 296.866 224.741 292.454Z" fill="white"/>
<path d="M331.533 322.032H340.472C340.472 322.032 345.091 322.672 345.336 314.912V250.299H327.445C326.328 250.299 325.256 249.837 324.465 249.015C323.674 248.193 323.229 247.078 323.228 245.914V239.36H341.792C343.994 239.36 346.107 240.271 347.664 241.893C349.222 243.515 350.097 245.715 350.097 248.009V316.225C350.097 319.371 348.897 322.388 346.761 324.613C344.625 326.838 341.727 328.087 338.706 328.087H328.092L331.533 322.032Z" fill="#E1E1E2"/>
<path d="M430.162 250.939L433.648 247.51H511.436V251.788H434.593L430.162 255.594V250.939Z" fill="#E1E1E2"/>
<path d="M283.959 156.823C283.959 156.823 295.983 137.618 304.935 138.433C304.935 138.433 307.283 139.066 300.239 144.139C300.239 144.139 295.026 147.399 296.417 149.487C296.417 149.487 297.025 150.659 300.071 149.487L302.012 148.813C302.094 148.778 302.184 148.767 302.272 148.782C302.36 148.797 302.442 148.837 302.509 148.898C302.577 148.959 302.626 149.038 302.653 149.126C302.679 149.215 302.681 149.31 302.658 149.399C302.426 150.295 301.455 151.851 297.891 153.67C296.947 154.144 296.096 154.797 295.382 155.597C294.036 157.132 292.018 159.712 291.831 161.592L283.959 156.823Z" fill="#F9B499"/>
<path d="M314.373 88.3975C332.352 88.3975 346.928 83.7109 346.928 77.9297C346.928 72.1484 332.352 67.4618 314.373 67.4618C296.393 67.4618 281.818 72.1484 281.818 77.9297C281.818 83.7109 296.393 88.3975 314.373 88.3975Z" fill="#E1E1E2"/>
<path d="M295.757 81.1428C301.255 81.1428 305.712 79.8882 305.712 78.3406C305.712 76.793 301.255 75.5384 295.757 75.5384C290.259 75.5384 285.802 76.793 285.802 78.3406C285.802 79.8882 290.259 81.1428 295.757 81.1428Z" fill="white"/>
<path d="M315.666 75.5451C321.164 75.5451 325.621 74.2905 325.621 72.7429C325.621 71.1953 321.164 69.9407 315.666 69.9407C310.168 69.9407 305.712 71.1953 305.712 72.7429C305.712 74.2905 310.168 75.5451 315.666 75.5451Z" fill="white"/>
<path d="M335.576 81.1428C341.074 81.1428 345.53 79.8882 345.53 78.3406C345.53 76.793 341.074 75.5384 335.576 75.5384C330.078 75.5384 325.621 76.793 325.621 78.3406C325.621 79.8882 330.078 81.1428 335.576 81.1428Z" fill="white"/>
<path d="M315.666 86.7405C321.164 86.7405 325.621 85.4859 325.621 83.9383C325.621 82.3906 321.164 81.136 315.666 81.136C310.168 81.136 305.712 82.3906 305.712 83.9383C305.712 85.4859 310.168 86.7405 315.666 86.7405Z" fill="white"/>
<path d="M374.211 206.979C374.145 206.979 374.081 206.957 374.028 206.918C373.975 206.878 373.935 206.822 373.913 206.757L370.996 198.512C370.583 197.331 370.538 196.044 370.868 194.835C371.198 193.625 371.885 192.555 372.833 191.776L372.917 191.709C372.952 191.683 372.991 191.664 373.032 191.653C373.073 191.643 373.116 191.641 373.158 191.648C373.2 191.655 373.241 191.67 373.277 191.694C373.313 191.717 373.345 191.747 373.37 191.783C373.395 191.819 373.413 191.859 373.423 191.902C373.433 191.945 373.435 191.99 373.428 192.034C373.422 192.078 373.407 192.12 373.385 192.158C373.362 192.195 373.333 192.228 373.299 192.254L373.234 192.302C372.393 192.993 371.783 193.944 371.49 195.018C371.197 196.092 371.237 197.234 371.604 198.283L374.515 206.521C374.53 206.562 374.538 206.606 374.537 206.65C374.536 206.695 374.526 206.738 374.509 206.778C374.491 206.818 374.466 206.855 374.435 206.884C374.404 206.914 374.367 206.938 374.327 206.952C374.291 206.971 374.251 206.98 374.211 206.979Z" fill="#E1E1E2"/>
<path d="M382.846 207.471C382.776 207.47 382.709 207.446 382.653 207.403C382.597 207.359 382.556 207.298 382.536 207.229L379.754 196.99C379.73 196.901 379.741 196.805 379.785 196.724C379.829 196.643 379.901 196.584 379.987 196.559C380.073 196.534 380.165 196.545 380.242 196.591C380.32 196.636 380.377 196.712 380.401 196.801L383.189 207.047C383.211 207.133 383.2 207.226 383.157 207.304C383.115 207.382 383.045 207.439 382.962 207.464L382.846 207.471Z" fill="#E1E1E2"/>
<path d="M392.07 206.596C392.001 206.595 391.934 206.572 391.878 206.53C391.823 206.487 391.781 206.428 391.759 206.36L388.978 197.522C388.952 197.437 388.958 197.345 388.997 197.265C389.036 197.186 389.104 197.125 389.185 197.098C389.225 197.083 389.268 197.077 389.311 197.08C389.353 197.083 389.395 197.095 389.433 197.115C389.471 197.135 389.505 197.163 389.532 197.197C389.56 197.231 389.58 197.271 389.593 197.313L392.374 206.151C392.388 206.193 392.394 206.237 392.391 206.282C392.388 206.326 392.377 206.369 392.357 206.409C392.338 206.449 392.311 206.484 392.278 206.512C392.246 206.541 392.208 206.562 392.167 206.575L392.07 206.596Z" fill="#E1E1E2"/>
<path d="M364.981 237.878H414.088L433.648 212.9H387.212L364.981 237.878Z" fill="#19C0D7"/>
<g opacity="0.2">
<path d="M364.981 237.878H414.088L433.648 212.9H387.212L364.981 237.878Z" fill="black"/>
</g>
<path d="M376.158 231.499L389.153 216.417H424.838L413.195 231.499H376.158Z" fill="white"/>
<path d="M373.105 205.713L380.091 231.499H384.01L374.651 205.713H373.105Z" fill="#505050"/>
<path d="M381.818 205.747L388.803 231.532H392.717L383.364 205.747H381.818Z" fill="#505050"/>
<path d="M391.339 205.747L398.318 231.532H402.238L392.885 205.747H391.339Z" fill="#505050"/>
<path d="M400.498 205.599L407.523 231.532H411.455L402.05 205.599H400.498Z" fill="#505050"/>
<path d="M400.498 205.599L397.342 194.646L402.05 205.599H400.498Z" fill="#E1E1E2"/>
<path d="M469.482 381.484C469.8 373.111 469.689 364.726 469.153 356.365C467.965 339.116 465.439 321.996 461.598 305.171C459.489 295.707 456.895 286.391 454.185 277.095C454.107 276.806 453.68 276.893 453.758 277.183C462.109 309.981 468.952 343.823 468.48 377.894C468.351 387.473 467.29 396.795 466.417 406.273C466.417 406.536 466.792 406.63 466.85 406.374C468.596 398.311 469.159 389.81 469.482 381.484Z" fill="#19C0D7"/>
<path d="M453.758 277.237C453.758 277.237 441.087 310.722 443.92 318.616C446.753 326.511 452.607 328.202 452.607 328.202C452.607 328.202 444.845 339.7 450.265 350.525C455.686 361.35 467.73 360.831 468.519 373.078C468.519 373.01 469.185 321.782 453.758 277.237Z" fill="#19C0D7"/>
<path d="M467.147 351.859C467.16 351.799 467.16 351.737 467.147 351.677C465.481 328.816 461.358 306.221 454.858 284.316C454.858 284.256 454.741 284.316 454.761 284.316C457.266 294.111 459.482 303.957 461.41 313.854C459.713 312.173 457.634 310.965 455.369 310.345C455.317 310.345 455.304 310.392 455.369 310.412C457.748 311.323 459.885 312.809 461.604 314.75C461.979 316.67 462.341 318.583 462.684 320.577C459.858 317.283 455.925 315.653 451.999 314.103C451.94 314.103 451.915 314.171 451.999 314.184C456.093 315.922 460.162 318.152 462.937 321.85C463.902 327.414 464.75 332.989 465.479 338.575C463.435 336.366 460.823 334.815 457.956 334.109C457.872 334.109 457.82 334.224 457.911 334.258C460.885 335.149 463.546 336.924 465.569 339.364H465.621C465.873 341.331 466.112 343.304 466.332 345.264C464.747 343.874 462.962 342.754 461.041 341.944C460.996 341.944 460.964 342.011 461.041 342.024C463 342.913 464.793 344.153 466.339 345.689H466.365C466.572 347.602 466.779 349.448 466.966 351.32C464.113 347.732 460.413 344.979 456.229 343.331C456.212 343.324 456.193 343.325 456.176 343.332C456.159 343.34 456.146 343.354 456.138 343.372C456.135 343.381 456.134 343.391 456.135 343.4C456.135 343.41 456.138 343.42 456.142 343.429C456.146 343.437 456.152 343.445 456.159 343.452C456.166 343.458 456.175 343.463 456.184 343.466C460.317 345.365 463.947 348.277 466.766 351.953C466.795 351.996 466.837 352.027 466.884 352.043C466.932 352.059 466.984 352.058 467.031 352.041C467.311 354.915 467.553 357.789 467.755 360.663C467.755 360.663 467.82 360.717 467.82 360.663C467.568 357.773 467.419 354.809 467.147 351.859Z" fill="#3F4347"/>
<path d="M456.966 307.064C454.675 305.577 452.056 304.724 449.36 304.585C449.346 304.587 449.334 304.593 449.325 304.603C449.315 304.612 449.309 304.625 449.308 304.639C449.309 304.652 449.316 304.664 449.325 304.673C449.335 304.682 449.347 304.686 449.36 304.686C451.964 305.193 454.493 306.053 456.882 307.246C456.979 307.293 457.057 307.125 456.966 307.064Z" fill="#3F4347"/>
<path d="M458.506 342.509C456.74 341.465 454.799 340.78 452.788 340.489C452.717 340.489 452.717 340.59 452.788 340.603C454.755 341.014 456.657 341.708 458.441 342.664C458.512 342.678 458.603 342.55 458.506 342.509Z" fill="#3F4347"/>
<path d="M502.775 319.135C497.422 322.992 492.505 327.466 488.118 332.473C483.593 337.785 480.103 343.962 477.84 350.66C473.03 364.595 470.443 379.255 470.181 394.061C470.013 402.262 470.77 410.455 472.439 418.472C472.443 418.502 472.454 418.531 472.469 418.557C472.485 418.583 472.505 418.606 472.53 418.623C472.554 418.641 472.581 418.653 472.61 418.66C472.639 418.666 472.668 418.667 472.697 418.661C472.726 418.656 472.754 418.645 472.779 418.629C472.804 418.612 472.826 418.591 472.843 418.566C472.859 418.541 472.871 418.512 472.877 418.482C472.884 418.452 472.884 418.421 472.878 418.391C470.803 404.238 470.879 389.833 473.105 375.705C475.278 361.849 478.7 346.787 487.147 335.524C491.753 329.401 497.497 324.585 503.169 319.6C503.467 319.337 503.085 318.906 502.775 319.135Z" fill="#19C0D7"/>
<path d="M472.025 384.091C475.073 378.952 478.659 374.181 482.717 369.865C489.043 363.263 494.36 358.582 495.213 354.217C496.067 349.852 488.862 346.639 488.862 346.639C488.862 346.639 497.633 348.255 500 344.443C502.367 340.63 503.558 318.414 503.558 318.414C503.558 318.414 487.639 330.283 480.194 346.908C472.749 363.533 472.025 384.091 472.025 384.091Z" fill="#19C0D7"/>
<path d="M498.06 324.106C491.352 330.977 484.599 338.293 480.64 347.312C479.293 350.433 478.119 353.631 477.122 356.891C476.915 357.564 476.708 358.204 476.514 358.865C476.501 358.899 476.501 358.938 476.514 358.972C474.64 365.714 473.129 372.56 471.986 379.477C471.986 379.477 472.051 379.544 472.063 379.477C472.71 376.021 473.506 372.525 474.353 369.036H474.444C475.783 368.439 477.204 368.064 478.655 367.925C478.752 367.925 478.739 367.743 478.655 367.749C477.247 367.816 475.854 368.081 474.515 368.538C475.291 365.392 476.126 362.26 477.102 359.161C480.201 358.382 483.372 357.953 486.559 357.881V357.82C483.439 357.671 480.314 357.95 477.264 358.649C477.426 358.117 477.6 357.591 477.775 357.066C479.846 356.547 481.949 356.176 484.069 355.955M484.069 355.874C481.992 355.92 479.924 356.184 477.898 356.662C478.778 353.967 479.741 351.354 480.75 348.787C481.61 346.692 482.617 344.665 483.765 342.725C485.443 342.285 487.148 341.965 488.868 341.768C488.913 341.768 488.913 341.681 488.868 341.681C487.237 341.565 485.599 341.75 484.03 342.226C484.871 340.821 485.757 339.444 486.688 338.097C490.272 337.269 493.894 336.507 497.555 337.222C497.566 337.217 497.576 337.21 497.583 337.199C497.59 337.189 497.594 337.177 497.594 337.164C497.594 337.152 497.59 337.139 497.583 337.129C497.576 337.119 497.566 337.111 497.555 337.107C494.075 336.15 490.621 336.703 487.148 337.417C487.523 336.891 487.911 336.373 488.305 335.861C490.471 335.166 492.721 334.798 494.987 334.77C494.993 334.772 495 334.773 495.006 334.773C495.012 334.772 495.018 334.77 495.024 334.766C495.029 334.763 495.034 334.758 495.037 334.752C495.04 334.746 495.041 334.739 495.041 334.733C495.041 334.726 495.04 334.719 495.037 334.713C495.034 334.707 495.029 334.702 495.024 334.699C495.018 334.695 495.012 334.693 495.006 334.692C495 334.692 494.993 334.693 494.987 334.695C492.895 334.487 490.783 334.682 488.758 335.268C491.714 331.435 494.981 327.858 498.208 324.288C498.402 324.073 498.292 324.019 498.124 324.14L484.069 355.874Z" fill="#3F4347"/>
<path d="M497.904 339.242C496.855 339.083 495.792 339.045 494.735 339.128C494.72 339.132 494.706 339.139 494.694 339.148C494.681 339.158 494.671 339.17 494.663 339.184C494.655 339.197 494.65 339.212 494.648 339.228C494.646 339.244 494.647 339.26 494.651 339.276C494.655 339.297 494.666 339.317 494.68 339.332C494.695 339.348 494.714 339.358 494.735 339.363C495.783 339.363 496.837 339.309 497.891 339.363C497.908 339.358 497.921 339.347 497.93 339.332C497.938 339.317 497.941 339.299 497.937 339.282C497.936 339.273 497.932 339.264 497.926 339.257C497.921 339.25 497.913 339.245 497.904 339.242Z" fill="#3F4347"/>
<path d="M486.417 360.771C484.733 360.816 483.07 361.165 481.501 361.801V361.876C483.131 361.471 484.767 361.31 486.417 361.02C486.448 361.02 486.477 361.007 486.499 360.985C486.521 360.962 486.533 360.931 486.533 360.899C486.533 360.866 486.521 360.834 486.499 360.811C486.478 360.787 486.448 360.773 486.417 360.771Z" fill="#3F4347"/>
<path d="M482.982 353.334C482.281 353.328 481.581 353.394 480.893 353.529C480.828 353.529 480.828 353.664 480.893 353.664C481.591 353.698 482.29 353.662 482.982 353.556C483.111 353.536 483.111 353.334 482.982 353.334Z" fill="#3F4347"/>
<path d="M425.285 342.691C430.475 344.524 435.449 346.964 440.11 349.966C444.946 353.166 449.14 357.314 452.458 362.179C459.462 372.302 464.826 383.552 468.338 395.482C470.291 402.083 471.5 408.899 471.94 415.791C471.928 415.843 471.897 415.887 471.853 415.915C471.81 415.943 471.757 415.952 471.708 415.939C471.672 415.932 471.639 415.914 471.613 415.887C471.586 415.861 471.568 415.828 471.559 415.791C470.093 403.827 466.834 392.175 461.902 381.262C457.057 370.579 450.957 359.222 441.656 352.128C436.565 348.296 430.854 345.756 425.155 343.095C424.767 343.015 424.968 342.583 425.285 342.691Z" fill="#19C0D7"/>
<path d="M464.58 387.857C460.976 384.435 457.019 381.439 452.781 378.925C446.184 375.092 440.821 372.599 439.198 369.265C437.574 365.931 442.658 361.599 442.658 361.599C442.658 361.599 435.925 365.028 433.137 362.509C430.349 359.989 424.476 342.301 424.476 342.301C424.476 342.301 440 348.046 449.702 359.727C459.405 371.407 464.58 387.857 464.58 387.857Z" fill="#19C0D7"/>
<path d="M463.739 384.212C455.977 369.016 445.595 355.247 431.397 346.201C435.105 348.686 438.583 351.525 441.785 354.681C438.896 354.514 436.016 355.144 433.435 356.507C433.429 356.512 433.425 356.518 433.422 356.525C433.419 356.532 433.417 356.54 433.417 356.547C433.417 356.555 433.419 356.562 433.422 356.569C433.425 356.576 433.429 356.583 433.435 356.588C433.442 356.591 433.45 356.592 433.457 356.592C433.465 356.592 433.473 356.591 433.48 356.588C436.223 355.511 439.14 354.997 442.07 355.072H442.167C442.671 355.571 443.17 356.076 443.668 356.588C442.165 356.655 440.671 356.862 439.204 357.207M439.204 357.268C440.757 356.965 442.335 356.83 443.913 356.864C446.525 359.604 448.982 362.499 451.274 365.533C450.231 365.38 449.169 365.458 448.157 365.762C448.148 365.765 448.141 365.77 448.135 365.776C448.128 365.782 448.123 365.789 448.119 365.797C448.116 365.806 448.114 365.814 448.114 365.823C448.113 365.832 448.115 365.841 448.118 365.85C448.121 365.859 448.126 365.868 448.132 365.875C448.139 365.882 448.147 365.887 448.157 365.89C449.262 365.753 450.379 365.737 451.488 365.843C451.921 366.409 452.342 366.961 452.781 367.541C449.607 367.332 446.421 367.655 443.344 368.497V368.571C446.537 367.912 449.798 367.686 453.047 367.898C453.448 368.443 453.823 369.009 454.211 369.568C452.318 369.518 450.429 369.745 448.596 370.242C448.519 370.242 448.538 370.376 448.596 370.356C450.508 369.928 452.466 369.772 454.418 369.891C456.093 372.283 457.691 374.735 459.23 377.22C458.409 377.066 457.564 377.119 456.766 377.375M456.766 377.443C457.654 377.373 458.547 377.418 459.424 377.577C460.815 379.814 462.186 382.09 463.435 384.367C463.609 384.529 463.913 384.367 463.784 384.185L456.766 377.443Z" fill="#3F4347"/>
<path d="M451.675 371.609C450.144 371.492 448.606 371.689 447.147 372.189ZM447.147 372.256C448.632 371.992 450.132 371.832 451.636 371.778C451.766 371.778 451.766 371.623 451.636 371.609L447.147 372.256Z" fill="#3F4347"/>
<path d="M438.111 353.085C437.417 353.037 436.719 353.08 436.035 353.213C436.026 353.212 436.017 353.213 436.009 353.216C436.001 353.219 435.993 353.224 435.987 353.23C435.981 353.236 435.976 353.244 435.973 353.253C435.97 353.262 435.969 353.271 435.97 353.28C435.97 353.298 435.977 353.315 435.989 353.327C436.001 353.34 436.018 353.347 436.035 353.347C436.682 353.266 437.387 353.3 438.072 353.28C438.098 353.284 438.124 353.278 438.146 353.263C438.167 353.248 438.183 353.225 438.189 353.199C438.191 353.174 438.185 353.148 438.17 353.127C438.156 353.106 438.135 353.091 438.111 353.085Z" fill="#3F4347"/>
<path d="M484.618 438.101H449.541L454.541 399.941L455.815 390.167H478.331L479.612 399.941L484.618 438.101Z" fill="#3F4347"/>
<path d="M479.612 399.941H454.541L455.815 390.167H478.331L479.612 399.941Z" fill="#2E3135"/>
<path d="M481.552 386.765H452.594V395.057H481.552V386.765Z" fill="#3F4347"/>
<g opacity="0.5">
<path d="M152.238 26.6547H53.0919V141.229H152.238V26.6547Z" fill="white"/>
</g>
<path d="M100.906 51.9015C100.906 51.9015 84.8447 42.1948 76.7335 54.2389C76.7335 54.2389 71.5588 61.79 78.978 78.152C78.978 78.152 80.2134 80.7319 79.3725 87.1716C78.8749 90.8058 78.6414 94.4739 78.674 98.1446C78.7969 105.797 80.0582 116.453 85.7891 120.522C86.3303 120.92 86.9935 121.097 87.6521 121.019C88.3107 120.941 88.9185 120.613 89.3596 120.098C90.2393 119.013 91.1772 116.985 91.7723 113.213C91.7723 113.213 94.0168 96.8513 100.925 94.8709C100.925 94.8709 106.449 94.332 110.071 113.732C110.071 113.732 111.087 122.038 114.314 122.179C114.837 122.181 115.339 121.968 115.711 121.586C117.762 119.565 125.899 110.135 123.021 88.2022C123.021 88.2022 121.649 83.3455 123.629 76.3332C123.629 76.3332 127.995 67.4012 127.063 59.3853C126.679 56.4676 125.321 53.784 123.226 51.8057C121.131 49.8274 118.434 48.6807 115.608 48.5671C110.518 48.403 105.469 49.5482 100.906 51.9015Z" fill="white"/>
<path d="M138.907 81.2303H118.881V81.904H138.907V81.2303Z" fill="#E6E7E8"/>
<path d="M86.2225 81.2303H66.1967V81.904H86.2225V81.2303Z" fill="#E6E7E8"/>
<path d="M119.153 53.5114L118.603 53.1611L127.012 38.7998H139.767V39.4734H127.374L119.153 53.5114Z" fill="#E6E7E8"/>
<path d="M85.9444 53.5653L77.7296 39.5273H65.3299V38.8537H78.0919L86.4942 53.215L85.9444 53.5653Z" fill="#E6E7E8"/>
<path d="M139.767 128.827H121.953L114.787 113.355L115.369 113.065L122.361 128.154H139.767V128.827Z" fill="#E6E7E8"/>
<path d="M82.8137 128.201H65V127.527H82.4062L89.3985 112.432L89.9806 112.728L82.8137 128.201Z" fill="#E6E7E8"/>
<path d="M142.704 85.8782C144.801 85.8782 146.501 84.1079 146.501 81.9242C146.501 79.7404 144.801 77.9701 142.704 77.9701C140.607 77.9701 138.907 79.7404 138.907 81.9242C138.907 84.1079 140.607 85.8782 142.704 85.8782Z" fill="#E6E7E8"/>
<path d="M142.704 132.451C144.801 132.451 146.501 130.681 146.501 128.497C146.501 126.314 144.801 124.543 142.704 124.543C140.607 124.543 138.907 126.314 138.907 128.497C138.907 130.681 140.607 132.451 142.704 132.451Z" fill="#E6E7E8"/>
<path d="M142.704 43.0907C144.801 43.0907 146.501 41.3204 146.501 39.1366C146.501 36.9528 144.801 35.1825 142.704 35.1825C140.607 35.1825 138.907 36.9528 138.907 39.1366C138.907 41.3204 140.607 43.0907 142.704 43.0907Z" fill="#E6E7E8"/>
<path d="M64.2108 86.6394C66.3078 86.6394 68.0077 84.8691 68.0077 82.6853C68.0077 80.5016 66.3078 78.7313 64.2108 78.7313C62.1139 78.7313 60.4139 80.5016 60.4139 82.6853C60.4139 84.8691 62.1139 86.6394 64.2108 86.6394Z" fill="#E6E7E8"/>
<path d="M65 131.818C67.097 131.818 68.7969 130.048 68.7969 127.864C68.7969 125.68 67.097 123.91 65 123.91C62.903 123.91 61.2031 125.68 61.2031 127.864C61.2031 130.048 62.903 131.818 65 131.818Z" fill="#E6E7E8"/>
<path d="M64.2108 43.8519C66.3078 43.8519 68.0077 42.0816 68.0077 39.8978C68.0077 37.714 66.3078 35.9437 64.2108 35.9437C62.1139 35.9437 60.4139 37.714 60.4139 39.8978C60.4139 42.0816 62.1139 43.8519 64.2108 43.8519Z" fill="#E6E7E8"/>
</svg>
