<svg width="97" height="97" viewBox="0 0 97 97" fill="none" xmlns="http://www.w3.org/2000/svg">
<path d="M50.3789 28.0272C51.0922 29.6017 52.6971 30.389 54.6586 30.4678C55.6394 30.4678 56.7094 30.4678 57.6901 30.4678C58.2251 30.4678 58.4926 30.6252 58.5817 31.0976C59.6517 36.2149 60.7216 41.3322 61.7915 46.4496C62.3265 49.1263 64.288 50.7009 67.1412 50.7796C69.9051 50.7796 71.9558 49.1263 72.58 46.5283C73.6499 41.411 74.7198 36.2936 75.7898 31.1763C75.8789 30.7039 76.0572 30.5465 76.5922 30.5465C77.4838 30.5465 78.3754 30.5465 79.267 30.5465C81.6744 30.5465 83.1901 29.6805 84.0817 27.7123C84.26 27.2399 84.5275 26.8463 84.7058 26.3739C86.6674 22.1226 88.7181 17.8713 89.1639 13.2263C89.3422 11.4156 89.3422 9.5261 88.6289 7.79408C88.2723 7.0068 87.559 6.61316 86.6674 6.84934C85.7758 7.08553 85.2408 7.79408 85.5083 8.58136C86.2216 10.707 85.9541 12.8327 85.5083 14.9583C84.6167 18.8947 82.8335 22.5162 81.2286 26.2164C80.6936 27.4761 80.4261 27.6335 78.8212 27.6335C71.6884 27.6335 64.4663 27.6335 57.3335 27.6335C53.0538 27.6335 53.8562 27.9485 52.3405 24.7206C50.5573 20.7055 48.6849 16.6116 48.2391 12.2028C47.7933 8.4239 50.2898 4.72368 54.302 3.38531C57.1552 2.44057 59.9192 2.67675 62.594 4.01513C65.4471 5.35351 68.3003 5.51096 71.2426 4.17259C74.5415 2.59803 77.8405 2.28311 81.2286 3.9364C82.031 4.33004 82.8335 4.01513 83.2793 3.30658C83.7251 2.5193 83.4576 1.81075 82.566 1.33838C81.1394 0.629824 79.6237 0.314912 78.108 0C76.8597 0 75.7006 0 74.4524 0C72.4908 0.472368 70.6184 1.25965 68.7461 1.9682C67.6761 2.36184 66.517 2.36184 65.5363 1.9682C63.5747 1.25965 61.7024 0.39364 59.6517 0C58.4034 0 57.066 0 55.8178 0C55.7286 0.157456 55.5503 0.157456 55.372 0.236184C53.4104 0.551096 51.7164 1.25965 50.1115 2.28311C45.3859 5.58969 44.4052 9.91973 45.3859 14.8796C46.1884 19.3671 48.3282 23.6971 50.3789 28.0272ZM69.1027 46.2921C68.8352 47.473 67.7653 47.9454 66.5171 47.7092C65.5363 47.473 64.6447 46.2134 64.9121 45.2686C64.9121 45.1112 65.0905 44.9537 65.1796 44.875C66.7845 43.3792 68.4786 41.8833 70.1726 40.4662C70.2618 40.4662 70.351 40.5449 70.4401 40.5449C69.9943 42.5131 69.6377 44.4026 69.1027 46.2921ZM72.4017 30.4678C72.7583 30.6252 72.4908 30.9401 72.4017 31.255C72.2233 31.9636 72.045 32.5934 71.9559 33.302C71.8667 34.7978 71.0642 35.8213 69.9052 36.766C68.0328 38.3406 66.1604 39.9939 64.1989 41.8046C63.9314 40.4662 63.6639 39.2853 63.3964 38.1831C63.3073 37.8682 63.5747 37.7107 63.7531 37.5533C66.2496 35.3489 68.8352 33.0658 71.3317 30.8614C71.6884 30.4678 72.045 30.3103 72.4017 30.4678ZM62.4156 30.4678C63.8422 30.4678 65.3579 30.4678 66.6954 30.4678C65.3579 31.6487 63.9314 32.8296 62.5048 34.0892C62.3265 33.1445 62.059 32.0423 61.7915 30.9401C61.7024 30.389 62.059 30.4678 62.4156 30.4678Z" fill="#52525B"/>
<path d="M96.9207 76.7598C96.8316 72.1936 96.9207 67.5487 96.0291 63.0612C95.1375 58.4949 91.3036 57.2353 87.2022 60.0695C86.1323 60.8568 85.2407 61.7228 84.4382 62.6675C83.8141 63.4548 82.9225 63.7697 81.8525 63.8484C80.7826 63.8484 79.8018 63.8484 78.7319 63.8484C78.1078 63.8484 78.0186 63.691 78.0186 63.2186C78.0186 62.2739 78.0186 61.3291 78.0186 60.3844C78.0186 59.2822 77.3945 58.7311 76.1463 58.7311C70.0833 58.7311 64.1096 58.7311 58.0466 58.7311C56.8875 58.7311 56.3526 59.2035 56.2634 60.2269C56.1743 61.093 56.2634 61.959 56.2634 62.825C56.2634 63.1399 56.62 63.8484 55.9959 63.8484C55.1043 63.8484 54.0344 64.3208 53.4103 63.5335C51.9837 61.5653 49.933 60.6993 47.2582 60.6993C48.3281 57.9438 49.2197 55.2671 49.4872 52.4329C49.933 48.0241 48.2389 44.3239 44.1375 41.7259C40.0361 39.1278 35.4889 38.8916 31.0309 40.8598C28.4452 42.0408 26.3054 42.0408 23.7197 40.8598C15.3386 37.0022 5.26342 42.5131 5.17426 50.8583C5.17426 53.1414 5.62008 55.3458 6.33337 57.4715C6.51169 58.1013 6.51168 58.4162 5.70923 58.4162C4.28266 58.4949 3.30191 59.2035 2.4103 60.1482C1.25121 61.3291 0.983706 62.7462 0.716224 64.1634C-0.0862232 69.2019 0.00294841 74.2405 0.00294841 79.3579C0.00294841 79.9877 0.0921201 80.5388 0.181281 81.1686C0.983728 84.7901 3.65853 87.2307 6.95748 89.2776C7.93825 89.9074 8.82987 89.75 9.36483 89.0414C9.98896 88.2541 9.81063 87.5456 8.7407 86.837C7.5816 86.1285 6.51168 85.3412 5.62007 84.3965C4.28266 83.0581 3.30191 81.5622 3.30191 79.8302C3.12359 75.1853 3.30191 70.6191 3.74771 65.9741C3.83687 64.9506 3.92602 63.9272 4.37182 62.9037C4.72847 62.0377 5.70924 61.3291 6.69001 61.2504C7.75994 61.2504 8.11658 61.959 8.38406 62.6675C8.82986 63.691 9.27567 64.6357 9.72147 65.6592C11.5047 69.753 13.5554 73.6894 14.447 78.0195C14.6253 78.8068 14.8036 79.594 15.1603 80.3026C16.4977 82.8219 19.44 83.373 21.7582 81.4048C22.8281 80.4601 23.5414 79.3579 23.9872 78.0982C24.7005 75.9726 25.4138 73.8469 26.1271 71.7212C26.3054 71.0914 26.5729 70.4616 27.4645 70.4616C28.3561 70.4616 28.5344 71.0914 28.8019 71.7212C29.5152 73.8469 30.2285 76.0513 30.9418 78.1769C31.3876 79.5941 32.19 80.775 33.5274 81.7197C35.6673 83.1368 38.1638 82.7432 39.5012 80.6962C39.947 79.9877 40.2145 79.2791 40.3928 78.4919C41.2844 73.8469 43.5134 69.5956 45.475 65.2655C45.9208 64.2421 46.9907 63.691 48.3281 63.691C49.5764 63.691 50.3788 64.2421 50.8246 65.1868C51.4487 66.3677 52.4295 66.8401 53.8561 66.7614C55.9068 66.6826 58.0466 66.7614 60.0973 66.7614C60.7214 66.7614 60.9889 66.9188 60.9889 67.4699C61.0781 68.3359 61.2564 69.2019 61.4347 70.068C62.148 74.3193 62.7722 78.4919 63.4854 82.7432C63.8421 84.7114 65.5361 85.8923 67.676 85.8923C69.8158 85.8923 71.4207 84.6326 71.7774 82.6644C72.5798 77.6258 73.2931 72.5873 74.0064 67.5487C74.0956 66.9188 74.2739 66.7614 74.9872 66.7614C77.3054 66.8401 79.6235 66.7614 81.9417 66.7614C84.4382 66.8401 86.3106 65.8954 87.648 64.1634C88.3613 63.2973 88.9854 62.4313 89.9662 61.8015C91.0361 61.093 91.8386 61.2504 92.5518 62.1952C93.0868 62.9824 93.176 63.8484 93.2651 64.7145C93.8893 69.4381 93.8893 74.1618 93.9784 78.8068C93.9784 80.8537 93.176 82.5857 91.6602 84.1603C90.6795 85.1837 89.4312 86.0498 88.183 86.837C84.1707 89.1989 79.7127 90.5372 75.0763 91.5607C67.5868 93.214 60.0082 93.9226 52.3404 94.08C42.9785 94.3162 33.7057 93.6864 24.6113 91.9544C22.0257 91.482 19.5292 90.8522 17.1218 90.0649C15.6953 89.5925 14.5362 90.4585 14.8036 91.7182C14.982 92.4267 15.6061 92.6629 16.2302 92.8204C24.2547 95.3397 32.5466 96.4418 41.0169 96.8355C52.4295 97.3079 63.7529 96.8355 74.898 94.4736C80.3368 93.3715 85.6865 91.7969 90.412 88.9627C93.4435 87.1519 95.94 84.9476 96.9207 81.7197C97.0991 80.2239 96.9207 78.4919 96.9207 76.7598ZM46.1882 51.6456C45.9207 55.9756 44.0484 59.912 42.3543 63.9272C40.5711 68.021 38.5204 71.9574 37.4505 76.2087C37.183 77.1535 37.0047 78.0982 36.7372 78.9642C36.648 79.3579 36.4697 79.7515 35.9347 79.7515C35.3998 79.8302 35.1323 79.5153 34.954 79.1217C34.1515 78.0982 33.7949 76.9173 33.4382 75.7364C32.8141 74.0044 32.3683 72.1936 31.655 70.4616C30.4959 67.4699 26.662 66.6039 24.2547 68.7296C23.5414 69.3594 23.1848 70.1467 22.9173 70.934C22.2932 72.9022 21.669 74.9491 20.9557 76.9173C20.6883 77.7833 20.3316 78.5706 19.7075 79.2791C19.0834 79.909 18.5484 79.8302 18.1917 79.043C17.7459 78.1769 17.6568 77.1535 17.4785 76.2087C16.3194 71.8 14.1795 67.7061 12.3963 63.4548C10.9697 60.227 9.54315 56.9991 8.91903 53.5351C8.74071 52.6691 8.65156 51.8031 8.65156 51.3307C8.5624 44.5601 16.141 40.3875 22.5606 43.3791C25.9487 44.9537 29.1585 45.0324 32.5466 43.3791C35.7564 41.8046 39.1445 41.962 42.176 43.8515C45.0291 45.741 46.3666 48.339 46.1882 51.6456ZM70.1725 68.887C69.5484 73.1383 68.9242 77.3897 68.3001 81.641C68.3001 81.7984 68.211 82.0346 68.211 82.1921C68.1218 82.6644 67.9435 82.9794 67.3194 82.9794C66.7844 82.9794 66.5169 82.6644 66.4277 82.1921C66.1603 80.6962 65.8928 79.1217 65.7145 77.6259C65.1795 74.2405 64.6445 70.7765 64.0204 67.3912C63.9312 66.7614 64.1096 66.6039 64.7337 66.6826C65.5361 66.7614 66.3386 66.6826 67.2302 66.6826C67.4977 66.6826 67.7651 66.6826 68.1218 66.6826C70.5291 66.7614 70.44 66.7614 70.1725 68.887ZM73.0256 63.8484C68.9242 63.8484 64.8228 63.8484 60.6323 63.8484C59.8298 63.8484 59.384 63.691 59.5623 62.9037C59.6515 62.6675 59.5623 62.4313 59.5623 62.1164C59.4732 61.6441 59.7407 61.4866 60.2757 61.4866C62.5938 61.4866 64.912 61.4866 67.2302 61.4866C69.37 61.4866 71.5991 61.4866 73.7389 61.4866C74.3631 61.4866 74.6305 61.5653 74.6305 62.2739C74.7197 63.8484 74.7197 63.8484 73.0256 63.8484Z" fill="#52525B"/>
<path d="M51.4487 11.4154C51.4487 12.4389 52.0729 12.99 53.1428 12.99C54.2127 12.99 54.6585 12.4389 54.7477 11.5729C55.0151 9.68341 56.2634 8.58121 58.2249 8.42376C59.4732 8.34503 60.0973 7.7152 60.0081 6.8492C59.919 5.98319 59.2057 5.51082 58.0466 5.58955C54.5694 5.58955 51.4487 8.34503 51.4487 11.4154Z" fill="#52525B"/>
<path d="M18.37 45.3474C14.8928 45.3474 11.683 48.1816 11.5938 51.252C11.5938 52.1968 12.1288 52.8266 13.1096 52.9053C14.0012 52.984 14.7145 52.5117 14.8928 51.7244C15.4277 49.2838 15.8735 48.8115 18.7267 48.2604C19.7074 48.1029 20.2424 47.4731 20.1533 46.6858C20.0641 45.8198 19.3508 45.2687 18.37 45.3474Z" fill="#52525B"/>
</svg>
