<svg width="97" height="97" viewBox="0 0 97 97" fill="none" xmlns="http://www.w3.org/2000/svg">
<path d="M40.4624 17.7219C41.7955 17.7219 43.207 17.7219 44.54 17.7219C45.1674 17.7219 45.2458 17.8787 45.2458 18.4276C45.2458 20.6233 45.2458 22.8189 45.2458 25.0145C45.2458 25.8771 45.4026 26.5829 45.8731 27.367C49.3234 33.2482 52.7737 39.0509 56.1456 44.9321C56.8513 46.1867 57.9491 46.8141 59.439 46.8141C60.3015 46.8141 61.2425 46.8925 62.1051 46.8141C62.8109 46.7356 63.0461 46.9709 63.0461 47.755C62.9677 50.0291 63.0461 52.3031 63.0461 54.5772C63.0461 55.7534 63.6734 56.5376 64.6144 56.5376C65.6338 56.5376 66.2611 55.7534 66.2611 54.5772C66.2611 52.3031 66.2611 49.9507 66.2611 47.6766C66.2611 46.9709 66.4964 46.8141 67.1237 46.8925C67.9079 46.9709 68.7704 46.8925 69.5546 46.8925C71.2013 46.9709 72.3776 46.2652 73.2401 44.7753C76.612 38.9725 79.9839 33.1698 83.4341 27.367C83.9046 26.6613 84.0615 25.8771 84.0615 25.0145C84.0615 22.8189 84.0615 20.6233 84.0615 18.5061C84.0615 17.8787 84.2183 17.7219 84.7672 17.8003C85.9435 17.8787 87.1197 17.8003 88.2959 17.8003C90.8836 17.8003 92.1383 16.5457 92.1383 13.8795C92.1383 10.6645 92.0598 7.44947 92.1383 4.23444C92.2167 2.27405 91.5894 0.784155 89.7074 0C72.9265 0 56.1455 0 39.3646 0C38.11 0.784155 37.0906 1.64673 37.0906 3.29345C37.0906 7.0574 37.0906 10.8213 37.0906 14.5853C37.169 16.3104 38.5805 17.7219 40.4624 17.7219ZM79.9055 24.152C74.3379 24.152 68.7704 24.152 63.1245 24.152C62.4188 24.152 61.8699 24.4656 61.4778 25.093C61.1641 25.6419 61.2426 26.1908 61.6346 26.6613C62.0267 27.2102 62.5756 27.367 63.2814 27.367C68.2215 27.367 73.0833 27.367 78.0235 27.367C78.494 27.367 78.886 27.367 79.5134 27.367C77.7098 30.4252 75.9847 33.405 74.2595 36.3848C73.0049 38.5804 71.7502 40.6977 70.4956 42.8933C70.2603 43.2854 70.0251 43.5206 69.4762 43.5206C66.2612 43.5206 62.9677 43.5206 59.7527 43.5206C59.2822 43.5206 59.0469 43.4422 58.7333 42.9717C55.7535 37.8747 52.8521 32.7777 49.8723 27.7591C49.7939 27.6807 49.7939 27.6023 49.7155 27.367C51.3622 27.367 52.9305 27.367 54.5772 27.367C55.8319 27.367 56.6161 26.6613 56.5376 25.7203C56.5376 24.7793 55.7535 24.152 54.5772 24.152C52.7737 24.152 50.8917 24.152 49.0882 24.152C48.5393 24.152 48.3824 23.9951 48.3824 23.4462C48.3824 21.7211 48.3824 20.0744 48.3824 18.3492C48.3824 17.8003 48.5393 17.6435 49.0882 17.6435C59.439 17.6435 69.7114 17.6435 80.0623 17.6435C80.6112 17.6435 80.768 17.8003 80.768 18.3492C80.768 19.996 80.6896 21.6427 80.768 23.2894C80.8464 23.9951 80.6896 24.152 79.9055 24.152ZM40.4624 3.92078C40.4624 3.37187 40.5408 3.05821 41.2466 3.13662C42.0307 3.21504 43.0501 2.82296 43.5206 3.29345C43.9127 3.68553 43.6775 4.70493 43.6775 5.48909C43.6775 5.72433 43.6775 5.95958 43.6775 6.27324C43.7559 7.29264 44.3832 7.99838 45.2458 8.0768C46.1868 8.0768 46.8925 7.37106 46.9709 6.27324C47.0494 5.48909 47.0494 4.70493 46.9709 3.92078C46.9709 3.37187 47.0493 3.13662 47.6766 3.13662C50.1075 3.13662 50.1076 3.0582 50.1076 5.5675C50.1076 7.21423 50.6564 8.0768 51.7543 8.0768C52.8521 8.0768 53.401 7.21423 53.401 5.5675C53.401 4.78335 53.0089 3.76394 53.5578 3.29345C54.0283 2.90137 55.0477 3.21504 55.8319 3.13662C56.4592 3.05821 56.5376 3.37187 56.5376 3.92078C56.5376 4.70493 56.5376 5.48909 56.5376 6.27324C56.6161 7.29264 57.2434 7.99838 58.1059 7.99838C59.0469 7.99838 59.7527 7.29264 59.7527 6.19483C59.7527 5.33225 59.7527 4.46968 59.7527 3.60711C59.7527 3.21504 59.8311 2.97979 60.3016 3.05821H60.38C62.9677 2.97979 62.9677 2.97979 62.9677 5.5675C62.9677 7.13581 63.5166 7.99838 64.6144 7.99838C65.7122 7.99838 66.2611 7.21423 66.2611 5.64592C66.2611 5.01859 66.3395 4.46968 66.2611 3.84236C66.1827 3.21504 66.418 3.05821 67.0453 3.13662C67.8294 3.21504 68.9273 2.82296 69.3978 3.29345C69.7898 3.76394 69.5546 4.78335 69.5546 5.5675C69.5546 7.21423 70.1035 7.99838 71.1229 7.99838C72.2207 7.99838 72.7696 7.21423 72.7696 5.64592C72.7696 4.86176 72.3775 3.68553 72.9265 3.29345C73.4754 2.90137 74.5732 3.21504 75.3574 3.13662C75.9063 3.05821 75.9847 3.29345 75.9847 3.76394C75.9847 4.62652 75.9847 5.48909 75.9847 6.35166C75.9847 7.29264 76.6904 7.99838 77.553 7.99838C78.4156 7.99838 79.1997 7.29264 79.1997 6.27324C79.1997 5.41067 79.1997 4.46968 79.1997 3.60711C79.1997 3.21504 79.2781 3.05821 79.7486 3.05821C80.4544 3.05821 81.2385 3.05821 81.9442 3.05821C82.4147 3.05821 82.4932 3.21504 82.4148 3.60711C82.4148 4.46968 82.4148 5.33225 82.4148 6.19483C82.4148 7.21423 83.1205 7.91997 83.9831 7.99838C84.8456 7.99838 85.6298 7.29264 85.6298 6.27324C85.6298 5.41067 85.6298 4.46968 85.6298 3.60711C85.6298 3.21504 85.7866 2.97979 86.1787 3.05821C86.2571 3.05821 86.3355 3.05821 86.3355 3.05821C87.1197 3.05821 88.1391 2.82296 88.6096 3.21504C89.1585 3.60711 88.7664 4.70493 88.7664 5.48909C88.7664 8.15521 88.7664 10.8213 88.7664 13.4091C88.7664 14.1932 88.6096 14.4285 87.8254 14.4285C80.0623 14.4285 72.2991 14.4285 64.536 14.4285C56.7728 14.4285 49.0881 14.4285 41.325 14.4285C40.5409 14.4285 40.3056 14.2716 40.3056 13.4875C40.4624 10.3508 40.4624 7.13581 40.4624 3.92078Z" fill="#52525B"/>
<path d="M95.118 82.2579C90.962 82.2579 86.806 82.2579 82.65 82.2579C80.5328 82.2579 79.1997 83.591 79.1997 85.7082C79.1997 88.0607 79.1997 90.4131 79.1997 92.844C79.1997 93.4714 79.0428 93.6282 78.4155 93.6282C58.498 93.6282 38.5804 93.6282 18.5845 93.6282C17.9572 93.6282 17.8003 93.4714 17.8003 92.844C17.8787 90.4916 17.8003 88.1391 17.8003 85.865C17.8003 83.591 16.4673 82.2579 14.1932 82.2579C10.194 82.2579 6.19484 82.2579 2.19565 82.2579C1.17625 82.2579 0.470493 82.4932 0 83.4342C0 83.8262 0 84.2183 0 84.532C0.548909 85.3161 1.33308 85.5514 2.27407 85.5514C6.03801 85.5514 9.88037 85.5514 13.6443 85.5514C14.3501 85.5514 14.5853 85.7082 14.5853 86.4924C14.5069 88.7664 14.5853 91.1189 14.5853 93.3929C14.5853 95.667 15.9184 96.8432 18.114 96.8432C38.3452 96.8432 58.5764 96.8432 78.886 96.8432C81.1601 96.8432 82.4147 95.5886 82.4147 93.3145C82.4147 91.0405 82.4147 88.7664 82.4147 86.4924C82.4147 85.7082 82.6499 85.5514 83.3557 85.5514C87.0412 85.5514 90.7268 85.5514 94.4123 85.5514C94.6475 85.5514 94.8828 85.5514 95.1965 85.5514C96.2943 85.473 97 84.9241 97 83.9047C96.9216 82.9637 96.2158 82.2579 95.118 82.2579Z" fill="#52525B"/>
<path d="M26.7397 70.8876C29.8763 73.9458 29.9548 77.6313 26.8181 80.7679C26.5829 81.0032 26.426 81.16 26.2692 81.3953C25.9556 81.9442 25.8772 82.4931 26.1908 83.042C26.5045 83.6693 26.975 83.9046 27.6807 83.983C28.0728 83.9046 28.4649 83.8261 28.7785 83.5125C32.8561 79.8269 33.8755 74.4163 30.2684 69.8682C29.5627 68.9272 28.6217 68.143 27.8375 67.2805C26.034 65.2417 25.4851 62.9676 26.6613 60.3799C27.1318 59.2821 27.9944 58.4979 28.7785 57.6354C29.4843 56.9296 29.4843 55.9886 28.8569 55.3613C28.308 54.734 27.2886 54.6556 26.6613 55.2045C22.8189 58.4979 21.4075 63.5165 24.3088 68.143C24.9362 69.1624 25.7987 70.025 26.7397 70.8876Z" fill="#52525B"/>
<path d="M32.3072 52.3031C34.4244 54.8124 34.5028 57.7922 32.464 60.3799C32.072 60.8504 31.6015 61.3209 31.2094 61.7914C30.5821 62.4971 30.6605 63.3597 31.2878 63.987C31.9151 64.6144 32.8561 64.6144 33.4834 64.0655C37.7179 60.3015 38.502 54.8908 35.0517 50.4996C34.4244 49.637 33.5619 48.9313 32.8561 48.1471C31.2878 46.5004 30.4252 44.6184 30.8957 42.2659C31.2094 40.7761 32.072 39.5998 33.1698 38.5804C33.5619 38.1883 33.9539 37.7963 33.9539 37.1689C33.9539 36.4632 33.7187 35.9143 33.0914 35.679C32.464 35.3654 31.7583 35.4438 31.2094 35.9143C27.0534 39.5998 26.034 45.0889 29.6411 49.637C30.5037 50.578 31.4446 51.3621 32.3072 52.3031Z" fill="#52525B"/>
<path d="M66.2611 61.6346C66.2611 61.5562 66.2611 61.4778 66.2611 61.3209C66.1827 60.3799 65.5554 59.6742 64.6928 59.6742C63.7518 59.6742 63.0461 60.3015 63.0461 61.3209C63.0461 64.3007 63.0461 67.2805 63.0461 70.1819C63.0461 73.0048 63.0461 75.8278 63.0461 78.7292C63.0461 79.9054 63.6734 80.6896 64.6144 80.6896C65.6338 80.6896 66.2611 79.9054 66.2611 78.7292C66.2611 73.0832 66.2611 67.3589 66.2611 61.6346Z" fill="#52525B"/>
<path d="M42.3444 88.7663C44.6184 88.7663 46.9709 88.7663 49.2449 88.7663C51.519 88.7663 53.8715 88.7663 56.1455 88.7663C57.4786 88.7663 58.1843 88.139 58.1843 87.1196C58.1843 86.1002 57.4786 85.5513 56.1455 85.5513C54.0283 85.5513 51.8327 85.5513 49.7155 85.5513C47.2062 85.5513 44.6969 85.5513 42.266 85.5513C40.8545 85.5513 39.9919 86.7275 40.5408 87.9037C40.9329 88.6095 41.5602 88.7663 42.3444 88.7663Z" fill="#52525B"/>
<path d="M59.2821 83.1204C59.2821 82.4146 58.89 81.9441 58.3411 81.6305C54.2635 79.278 50.1859 76.9255 46.1083 74.5731C45.7162 74.3378 45.3241 74.181 44.8536 74.2594C44.0695 74.4162 43.599 74.8867 43.4422 75.5925C43.2853 76.3766 43.6774 77.004 44.3832 77.396C47.2061 79.0428 50.0291 80.6895 52.852 82.2578C54.1851 83.0419 55.5181 83.8261 56.8512 84.5318C58.1059 85.1592 59.2821 84.375 59.2821 83.1204Z" fill="#52525B"/>
<path d="M61.4777 81.5521C62.3403 81.0817 62.4971 80.1407 61.9482 79.1997C59.5958 75.0437 57.2433 70.9661 54.8124 66.8884C54.4988 66.3395 54.0283 66.0259 53.401 66.0259C52.0679 66.0259 51.2837 67.3589 51.9894 68.5352C54.3419 72.6912 56.6944 76.7688 59.1253 80.8464C59.6742 81.7874 60.6152 82.0226 61.4777 81.5521Z" fill="#52525B"/>
<path d="M72.5344 84.4535C76.6904 82.1011 80.8464 79.6702 84.924 77.3177C85.5513 77.0041 85.865 76.4551 85.865 75.7494C85.865 74.4163 84.532 73.789 83.1989 74.4948C79.1213 76.8472 75.0437 79.1997 70.9661 81.5522C70.0251 82.1011 69.7898 83.0421 70.2603 83.9046C70.7308 84.7672 71.5934 85.0024 72.5344 84.4535Z" fill="#52525B"/>
<path d="M77.6314 67.4374C77.4746 66.8101 77.1609 66.1827 76.4552 65.9475C75.5926 65.7123 74.8869 66.0259 74.4948 66.8101C72.1423 70.8877 69.7899 74.8869 67.5158 78.9645C66.8885 80.0623 67.0454 80.9249 67.9079 81.3954C68.7705 81.9443 69.7115 81.6306 70.3388 80.5328C72.6913 76.5336 74.9653 72.5344 77.3178 68.5352C77.3962 68.3 77.6314 67.9863 77.6314 67.4374Z" fill="#52525B"/>
<path d="M88.8448 72.6128C88.8448 73.4754 89.7074 74.3379 90.57 74.2595C91.4325 74.2595 92.1383 73.4754 92.1383 72.6128C92.1383 71.7502 91.3541 70.9661 90.4916 70.9661C89.629 70.9661 88.8448 71.7502 88.8448 72.6128Z" fill="#52525B"/>
<path d="M38.8157 70.9661C37.9531 70.9661 37.0905 71.7502 37.169 72.6912C37.169 73.5538 37.9531 74.3379 38.8157 74.3379C39.6782 74.3379 40.384 73.5538 40.384 72.6912C40.4624 71.7502 39.6782 70.9661 38.8157 70.9661Z" fill="#52525B"/>
<path d="M64.6928 85.4729C63.8302 85.4729 63.1245 86.1786 63.0461 87.1196C63.0461 88.0606 63.6734 88.7664 64.6144 88.7664C65.477 88.7664 66.2611 88.139 66.2611 87.198C66.3395 86.3355 65.5554 85.4729 64.6928 85.4729Z" fill="#52525B"/>
</svg>
