<svg width="97" height="97" viewBox="0 0 97 97" fill="none" xmlns="http://www.w3.org/2000/svg">
<path d="M92.8139 24.9947C75.8029 16.2695 60.4832 8.42559 45.9592 1.02235C42.0796 -0.916587 37.7025 -0.0352419 35.4145 3.13757C33.1265 6.31039 34.1212 10.1001 37.802 12.3916C38.1999 12.656 38.2994 12.7441 38.2994 13.0967C38.2994 16.9746 38.1999 21.5575 38.2994 26.0523C38.2994 26.2286 38.2994 26.3167 38.2994 26.3167C38.1999 26.3167 38.1004 26.3167 37.9015 26.3167C35.8124 26.3167 33.7233 26.3167 32.0322 26.3167H30.1421C27.0582 26.3167 24.8697 27.3743 23.477 29.4895C23.278 29.7539 23.1785 29.8421 22.5817 29.8421C21.5869 29.8421 20.5921 29.8421 19.5973 29.8421H19.3983C18.3041 29.8421 17.3093 29.8421 16.215 29.8421C15.4192 29.8421 14.9218 30.0184 14.5239 30.3709C14.126 30.7234 13.927 31.2522 13.927 31.8692C13.927 33.5437 13.927 35.2182 13.927 36.8928C13.927 37.5978 14.126 38.0385 14.5239 38.3911C15.1208 38.8317 15.8171 38.9199 16.414 38.9199C17.4088 38.9199 18.3041 38.9199 19.2989 38.9199H19.5973C20.5921 38.9199 21.5869 38.9199 22.5817 38.9199C23.0791 38.9199 23.278 39.008 23.5765 39.3605C24.9692 41.3876 27.0582 42.4452 29.7442 42.4452C40.4879 42.4452 49.441 42.4452 57.7973 42.4452C61.3785 42.4452 64.2634 40.33 64.9597 37.1572C65.1587 36.0996 65.1587 35.1301 65.1587 34.1606C65.1587 33.8962 65.1587 33.6318 65.1587 33.3674C65.1587 29.137 62.1743 26.493 57.2999 26.4049C54.7134 26.4049 52.127 26.4049 49.5405 26.4049H49.2421C49.2421 24.2015 49.2421 21.91 49.2421 19.7948V18.2966L56.0066 21.7338C62.4728 25.0829 69.8342 28.7845 76.9967 32.398C77.4941 32.6624 77.6931 32.9268 77.6931 33.5437C77.6931 36.2758 77.6931 39.008 77.6931 41.7401V43.8553C77.6931 45.1774 78.2899 45.8824 79.3842 45.8824C79.8816 45.8824 80.2795 45.7062 80.5779 45.4418C81.0753 45.0011 81.0753 44.3841 81.0753 43.8553C81.0753 43.4147 81.0753 43.0621 81.0753 42.6215V34.5132L81.3738 34.6894C82.468 35.2182 83.4628 35.8352 84.5571 36.2758C85.0545 36.4521 85.154 36.6284 85.0545 37.1572C85.0545 38.6555 85.0545 40.1537 85.0545 41.5639V41.652C85.0545 42.4452 85.0545 43.1503 85.0545 43.9435C85.0545 44.4723 85.0545 45.7943 86.5467 45.8824H86.6462C87.1436 45.8824 87.442 45.7943 87.7405 45.5299C88.2379 45.0892 88.2379 44.3841 88.2379 43.9435V42.0927C88.2379 40.7707 88.2379 39.3605 88.2379 38.0385C88.2379 37.8622 88.2379 37.7741 88.2379 37.7741C88.3373 37.7741 88.4368 37.7741 88.5363 37.7741C92.416 37.9504 95.5993 36.1877 96.5941 33.103C97.7878 29.9302 96.2956 26.7574 92.8139 24.9947ZM45.5613 26.1405C45.5613 26.2286 45.5613 26.3167 45.5613 26.3167C45.4619 26.3167 45.2629 26.3167 45.0639 26.3167H44.9645C43.2733 26.3167 42.0796 26.4049 41.7811 26.1405C41.4827 25.8761 41.4827 24.8185 41.4827 23.3202V14.4187L41.8806 14.595C43.0744 15.2119 44.2681 15.8288 45.4619 16.3576C45.5613 16.4458 45.5613 16.4458 45.5613 16.7102V16.8864C45.5613 17.8559 45.5613 18.8254 45.5613 19.7948V19.883C45.5613 21.9101 45.5613 24.0253 45.5613 26.1405ZM61.478 34.9538C61.478 35.2182 61.478 35.4826 61.478 35.747C61.478 38.0385 60.0853 39.2724 57.4988 39.2724C56.2056 39.2724 54.9124 39.2724 53.6191 39.2724C52.3259 39.2724 51.0327 39.2724 49.7395 39.2724H49.1426C48.2473 39.2724 47.4514 39.2724 46.5561 39.2724H42.179C38.1999 39.2724 34.2207 39.2724 30.2416 39.2724C26.9587 39.2724 25.6655 38.2148 25.6655 35.2182V35.042C25.6655 34.1606 25.6655 33.2793 25.765 32.398C25.964 30.5472 27.3567 29.4014 29.4457 29.4014C32.5296 29.4014 35.6134 29.4014 38.7968 29.4014H43.5718C44.9645 29.4014 46.2577 29.4014 47.6504 29.4014C48.4462 29.4014 49.3415 29.4014 50.2368 29.4014H51.4306C51.729 29.4014 51.928 29.4014 52.2264 29.4014C54.0171 29.4014 55.5092 29.4014 56.9019 29.3133C58.3941 29.2251 59.6874 29.6658 60.4832 30.459C61.279 31.1641 61.5775 32.2217 61.478 33.4556C61.3785 33.9844 61.478 34.5132 61.478 34.9538ZM41.9801 3.04943C42.0796 3.04943 42.0796 3.04943 42.179 3.04943C42.9749 3.04943 43.6712 3.40197 44.3676 3.66637L49.0431 6.04597C63.0696 13.2729 77.1957 20.4118 91.2222 27.6387C93.5102 28.7845 94.3061 30.8997 93.1123 32.8386C92.5154 33.72 91.7196 34.3369 90.7248 34.6013C89.5311 34.8657 88.2378 34.6894 86.9446 34.0725C78.6878 29.8421 70.5306 25.6998 62.2738 21.4694L48.6452 14.5068C45.7603 13.0085 42.8754 11.5984 40.09 10.1001C38.1999 9.13066 37.4041 7.45611 37.9015 5.60531C38.1999 4.72397 38.8962 3.93076 39.9905 3.40196C40.5874 3.13756 41.1843 3.04943 41.9801 3.04943ZM19.9952 35.747H19.8957C19.6968 35.747 19.4978 35.747 19.3983 35.747C18.6025 35.747 17.7072 35.747 17.5083 35.6589C17.4088 35.5708 17.3093 34.8657 17.3093 34.2488V33.9844C17.3093 33.3674 17.3093 33.103 17.4088 33.0149H19.0004C19.1994 33.0149 19.3983 33.0149 19.5973 33.0149H19.6968C19.7963 33.0149 19.8958 33.0149 19.9952 33.0149C20.99 33.0149 21.9848 33.0149 22.1838 33.1912C22.3827 33.2793 22.3827 34.1606 22.3827 34.9538V35.1301C22.3827 35.747 22.2832 35.9233 22.2832 35.9233C22.2832 35.9233 22.1838 36.0114 21.5869 35.9233C21.0895 35.747 20.4926 35.747 19.9952 35.747Z" fill="#52525B"/>
<path d="M7.65988 55.8415C11.4401 55.7534 15.2203 55.7534 19.0005 55.8415H19.4979C21.189 55.8415 22.8802 55.8415 24.5713 55.8415H30.4406C34.0218 55.8415 37.7026 55.8415 41.2838 55.8415C41.7812 55.8415 42.577 55.8415 43.0744 55.4008C43.3729 55.1364 43.5718 54.7839 43.4723 54.3432C43.4723 52.845 41.8807 52.845 41.1843 52.845C38.3989 52.845 35.713 52.845 32.9276 52.845H30.5401C22.6812 52.845 14.9219 52.845 7.26197 52.845C3.28281 52.845 0 55.9297 0 59.455C0 62.9803 3.08386 65.8006 7.06302 65.9769C8.05781 66.065 9.15207 66.065 10.2463 65.9769H11.2411C12.3354 65.9769 13.4297 65.9769 13.6286 66.1532C13.8276 66.3294 13.8276 67.2108 13.8276 68.2684C13.8276 68.5328 13.8276 68.6209 13.8276 68.709C13.7281 68.709 13.6286 68.709 13.4297 68.709C12.037 68.709 11.0422 68.9734 10.3458 69.6785C9.64946 70.2955 9.25155 71.2649 9.25155 72.4988C9.25155 79.3732 9.25155 86.3358 9.25155 93.2102C9.25155 95.5898 10.6442 96.9118 13.3302 97C13.9271 97 14.5239 97 15.1208 97C15.6182 97 16.1156 97 16.5135 97C17.0109 97 17.4088 97 17.9062 97H22.4823C26.0635 97 29.5453 97 33.1265 97C35.9119 97 37.6031 95.678 37.6031 93.3865C37.6031 86.5121 37.6031 79.3732 37.6031 72.2344C37.6031 71.1768 37.2052 70.2073 36.4093 69.5904C35.8125 69.0616 34.9171 68.7972 34.0218 68.8853C33.226 68.9734 33.1265 68.7972 33.027 68.7972C32.8281 68.6209 32.9276 68.004 32.9276 67.7396C33.027 67.2108 33.027 66.7701 32.9276 66.2413C32.9276 66.1532 32.9276 66.1532 32.9276 66.1532C32.9276 66.1532 33.027 66.1532 33.1265 66.1532C35.9119 66.2413 38.1999 66.2413 40.289 66.1532C40.3885 66.1532 40.488 66.1532 40.6869 66.1532H40.7864C41.3833 66.2413 42.1791 66.3294 42.776 65.8006C43.1739 65.5362 43.2734 65.0956 43.2734 64.5668C43.2734 64.038 43.0744 63.6854 42.776 63.421C42.1791 62.9803 41.3833 63.0685 40.7864 63.1566C40.6869 63.1566 40.488 63.1566 40.3885 63.1566C29.3463 63.1566 18.0057 63.1566 8.25676 63.1566C6.26718 63.1566 4.87448 62.5397 4.07865 61.3058C3.38229 60.1601 3.28281 58.8381 3.97916 57.7805C4.87447 56.5466 6.1677 55.8415 7.65988 55.8415ZM34.5192 79.9901V80.3427C34.5192 81.224 34.5192 82.0172 34.5192 82.8986V86.5121C34.5192 88.5391 34.5192 90.5662 34.5192 92.5933C34.5192 93.9153 34.5192 93.9153 33.027 93.9153H27.5557C22.9797 93.9153 18.4036 93.9153 14.0265 93.9153C13.4297 93.9153 13.1312 93.8271 13.0318 93.739C12.8328 93.6509 12.8328 93.2983 12.8328 92.8577C12.8328 85.19 12.8328 78.8444 12.8328 72.8513C12.8328 72.2344 12.9323 72.0581 13.0318 71.97C13.2307 71.7937 13.5291 71.7937 14.126 71.7937H14.2255C20.5922 71.8819 27.0583 71.8819 33.3255 71.7937C33.9223 71.7937 34.3203 71.8819 34.4198 71.97C34.5192 72.0581 34.6187 72.3225 34.6187 72.9394C34.4197 75.2309 34.5192 77.6987 34.5192 79.9901ZM17.5083 66.1532C17.7073 65.9769 18.7021 65.9769 19.7963 65.9769C20.6916 65.9769 21.587 65.9769 22.4823 65.9769H22.5817C24.7703 65.9769 27.0583 65.9769 29.2468 65.9769H29.3463C29.7442 65.9769 29.8437 66.065 29.8437 66.065C29.8437 66.065 29.9432 66.1532 29.9432 66.682V66.7701C29.9432 67.4752 29.9432 68.3565 29.7442 68.4446C29.5453 68.5328 28.5505 68.5328 27.6552 68.5328H23.4771C23.0791 68.5328 22.6812 68.5328 22.2833 68.5328H21.7859C20.2937 68.5328 19.0005 68.5328 17.7073 68.5328C17.6078 68.5328 17.5083 68.5328 17.4088 68.5328C17.4088 68.4446 17.4088 68.3565 17.4088 68.1802C17.4088 67.2989 17.3094 66.3294 17.5083 66.1532Z" fill="#52525B"/>
<path d="M88.1384 46.2349C75.7035 46.2349 63.2686 46.2349 50.8337 46.2349C46.5561 46.2349 44.1686 48.3501 44.1686 52.1398C44.1686 56.7228 44.1686 61.2176 44.1686 65.8005V71.5293V77.0817C44.1686 81.6646 44.1686 86.2476 44.1686 90.8305C44.1686 94.6203 46.5561 96.7355 50.9332 96.7355C57.2004 96.7355 63.4676 96.7355 69.7348 96.7355C75.803 96.7355 81.9707 96.7355 88.0389 96.7355C92.3165 96.7355 94.8035 94.5321 94.8035 90.7424C94.8035 77.7867 94.8035 64.9192 94.8035 51.9636C94.8035 48.5263 92.217 46.2349 88.1384 46.2349ZM91.3217 77.0817C91.3217 81.6646 91.3217 86.2476 91.3217 90.8305C91.3217 93.2101 90.5259 93.9152 87.9394 93.9152C75.604 93.9152 63.1691 93.9152 50.8337 93.9152C48.5457 93.9152 47.5509 93.0339 47.4515 91.0949C47.4515 77.963 47.4515 64.9192 47.4515 52.228C47.4515 50.289 48.4462 49.4077 50.6348 49.4077C56.703 49.4077 62.9702 49.4077 69.3368 49.4077C75.5045 49.4077 81.6722 49.4077 88.0389 49.4077C90.3269 49.4077 91.2222 50.2009 91.2222 52.3161C91.2222 56.899 91.2222 61.482 91.2222 65.9768V71.6174L91.3217 77.0817Z" fill="#52525B"/>
<path d="M23.6762 83.7799C21.4876 83.7799 19.697 85.2782 19.697 87.2171C19.697 88.1866 20.0949 89.1561 20.8908 89.8611C21.5871 90.4781 22.5819 90.9187 23.6762 90.9187H23.7757C25.9642 90.9187 27.6553 89.3323 27.6553 87.3934C27.5559 85.3663 25.8647 83.7799 23.6762 83.7799Z" fill="#52525B"/>
<path d="M23.4772 81.7528C25.7652 81.7528 27.4564 80.3427 27.5559 78.4038C27.5559 77.4343 27.1579 76.4648 26.4616 75.8479C25.7652 75.1428 24.671 74.7903 23.5767 74.7903C21.3882 74.7903 19.697 76.2886 19.5975 78.2275C19.697 80.1664 21.2887 81.7528 23.4772 81.7528Z" fill="#52525B"/>
<path d="M87.7403 72.6749C86.3476 72.6749 84.9549 72.6749 83.3632 72.6749H83.0648C84.8554 69.9428 84.7559 66.6818 82.6669 64.1259C80.4783 61.3938 76.4992 60.1599 72.8184 61.1294C70.6299 61.7463 68.4414 61.7463 66.1534 61.1294C63.8653 60.5125 61.4778 60.6887 59.3888 61.7463C57.2997 62.8039 55.7081 64.4785 55.0117 66.5937C54.3154 68.7089 54.6138 70.736 55.907 72.6749H54.4148C53.3206 72.6749 52.3258 72.6749 51.331 72.6749H51.132C50.4357 72.6749 48.9435 72.6749 48.9435 74.1732C48.9435 74.6139 49.043 74.9664 49.3414 75.2308C49.8388 75.6715 50.6346 75.6715 51.331 75.6715C52.6242 75.6715 53.9174 75.6715 55.3101 75.6715H56.6034C56.5039 75.9359 56.4044 76.2002 56.3049 76.4647C54.8128 80.8713 55.6086 84.7492 58.6924 88.0102C59.1898 88.539 60.0851 89.3322 61.2789 89.3322C61.6768 89.3322 62.1742 89.2441 62.6716 89.0678C64.1638 88.4509 64.6612 87.217 64.1638 85.6306C63.5669 83.5154 64.0643 81.4883 65.8549 79.5493C66.7502 78.5799 67.944 78.0511 69.3367 78.0511C70.7294 78.0511 72.0226 78.5799 72.8184 79.5493C74.7085 81.4883 75.2059 83.6035 74.6091 85.895C74.2112 87.3932 74.7086 88.539 76.2007 89.1559C78.1903 89.9491 79.4835 88.7152 79.8814 88.3627C80.9757 87.3051 81.871 86.0712 82.3684 84.6611C83.4627 81.7527 83.3632 78.8443 82.07 75.8477H83.0648C84.557 75.8477 85.9497 75.8477 87.4419 75.8477C88.0387 75.8477 89.6304 75.8477 89.6304 74.3494C89.6304 73.9088 89.5309 73.5563 89.2325 73.2919C89.0335 72.6749 88.3372 72.6749 87.7403 72.6749ZM79.583 71.7936C79.1851 72.1461 78.9862 72.4105 78.6877 72.6749C77.0961 73.7325 77.6929 74.8782 78.2898 75.5833C80.5778 78.4036 80.4783 82.634 78.2898 85.4543C78.9862 81.0476 75.9023 76.3765 71.6247 75.3189C70.8289 75.1427 70.1325 75.0545 69.3367 75.0545C67.2476 75.0545 65.457 75.7596 63.8653 77.2579C61.3784 79.5494 60.3836 82.3696 60.7815 85.5424C59.6872 84.1323 59.0903 82.4578 59.0903 80.5188C59.0903 79.1087 59.2893 77.4341 60.3836 76.2003C62.0747 74.3495 60.9804 73.2037 59.8862 72.2342C58.195 70.8241 57.7971 69.1496 58.4935 67.2106C59.1898 65.1835 61.3784 63.8615 63.6664 63.8615C64.1638 63.8615 64.6612 63.9497 65.2581 64.0378C68.2424 64.831 71.1273 64.831 74.1117 64.0378C76.3002 63.4209 78.7872 64.2141 80.0804 66.0649C81.4731 67.9157 81.2742 70.119 79.583 71.7936Z" fill="#52525B"/>
<path d="M77.1957 54.6957H79.3843C80.777 54.6957 82.1697 54.6957 83.6619 54.6957C85.1541 54.6957 85.1541 54.6956 85.1541 55.9295C85.1541 57.1634 85.1541 58.3973 85.1541 59.6311V61.8345C85.1541 62.4514 85.353 62.9802 85.7509 63.2446C85.9499 63.4209 86.3478 63.6853 86.9447 63.6853C87.5415 63.6853 87.9395 63.4209 88.1384 63.2446C88.5363 62.8921 88.6358 62.4514 88.6358 61.8345C88.6358 61.1294 88.6358 60.4243 88.6358 59.7193V57.6922C88.6358 56.9871 88.6358 56.2821 88.6358 55.577C88.5363 53.3736 87.0442 51.9635 84.6567 51.7872C82.6671 51.6991 80.777 51.6991 78.8869 51.6991H77.1957C76.6983 51.6991 76.002 51.7872 75.6041 52.1398C75.3056 52.4042 75.2062 52.7567 75.2062 53.2855C75.1067 54.6956 76.5989 54.6957 77.1957 54.6957Z" fill="#52525B"/>
<path d="M66.3525 54.6957C66.8499 54.6957 67.2478 54.6957 67.7452 54.6957H68.8395H69.2374H69.6353C70.3317 54.6957 70.9285 54.6957 71.6249 54.6957C72.6197 54.6957 73.316 54.0787 73.316 53.1092C73.316 52.316 72.6197 51.6991 71.7244 51.6991C70.8291 51.6991 69.9337 51.6991 69.0384 51.6991C68.1431 51.6991 67.1483 51.6991 66.253 51.6991C65.6562 51.6991 65.2582 51.8754 64.8603 52.1398C64.5619 52.4042 64.4624 52.7567 64.4624 53.1974C64.4624 54.1668 65.2582 54.6957 66.3525 54.6957Z" fill="#52525B"/>
<path d="M73.8134 65.4483C73.4155 65.272 72.9181 65.1838 72.3212 65.3601C70.4311 65.8008 68.541 65.8008 66.7504 65.3601C65.7556 65.0957 64.8603 65.4483 64.5618 66.2415C64.4624 66.594 64.1639 67.6516 65.8551 68.1804C67.1483 68.5329 68.3421 68.7092 69.6353 68.7973C70.7296 68.7973 71.9233 68.6211 73.2165 68.2685C74.8082 67.8279 74.7087 66.7703 74.6092 66.4177C74.4103 65.9771 74.2113 65.6245 73.8134 65.4483Z" fill="#52525B"/>
</svg>
