<svg width="512" height="359" viewBox="0 0 512 359" fill="none" xmlns="http://www.w3.org/2000/svg">
<path d="M399.376 37.0466V145.794C399.376 147.777 398.49 149.679 396.913 151.082C395.336 152.485 393.197 153.274 390.966 153.275H220.41C218.178 153.275 216.038 152.487 214.46 151.084C212.881 149.681 211.995 147.778 211.995 145.794V37.0466C211.995 35.0626 212.881 33.1598 214.46 31.7569C216.038 30.3539 218.178 29.5658 220.41 29.5658H390.966C393.197 29.5672 395.336 30.356 396.913 31.7587C398.49 33.1615 399.376 35.0635 399.376 37.0466Z" fill="#19C0D7"/>
<g opacity="0.6">
<path d="M399.376 37.0466V145.794C399.376 147.777 398.49 149.679 396.913 151.082C395.336 152.485 393.197 153.274 390.966 153.275H220.41C218.178 153.275 216.038 152.487 214.46 151.084C212.881 149.681 211.995 147.778 211.995 145.794V37.0466C211.995 35.0626 212.881 33.1598 214.46 31.7569C216.038 30.3539 218.178 29.5658 220.41 29.5658H390.966C393.197 29.5672 395.336 30.356 396.913 31.7587C398.49 33.1615 399.376 35.0635 399.376 37.0466Z" fill="white"/>
</g>
<path d="M399.376 37.0466V44.8166H211.995V37.0466C211.995 35.0626 212.881 33.1598 214.46 31.7569C216.038 30.3539 218.178 29.5658 220.41 29.5658H390.966C393.197 29.5672 395.336 30.356 396.913 31.7587C398.49 33.1615 399.376 35.0635 399.376 37.0466Z" fill="#19C0D7"/>
<path d="M377.85 69.9453H294.192C291.239 69.9453 288.846 72.073 288.846 74.6977V124.356C288.846 126.981 291.239 129.108 294.192 129.108H377.85C380.802 129.108 383.196 126.981 383.196 124.356V74.6977C383.196 72.073 380.802 69.9453 377.85 69.9453Z" fill="white"/>
<path d="M364.543 77.4576H351.397V118.868H364.543V77.4576Z" fill="#505050"/>
<path d="M341.343 87.6406H328.197V118.862H341.343V87.6406Z" fill="#E6E7E8"/>
<path d="M319.178 100.836H306.031V118.868H319.178V100.836Z" fill="#19C0D7"/>
<path d="M275.977 95.2108C275.977 95.2108 274.469 98.7331 274.848 106.776C274.848 106.776 274.499 117.816 271.571 126.133C270.471 129.287 268.999 132.052 267.035 133.708C266.826 133.882 266.571 134.006 266.294 134.07C266.017 134.135 265.726 134.137 265.448 134.077C265.17 134.017 264.912 133.897 264.699 133.727C264.486 133.557 264.324 133.343 264.226 133.104C263.729 131.916 263.227 129.876 262.967 126.375C262.967 126.375 262.026 106.098 256.94 105.431C256.94 105.431 252.209 104.905 252.209 117.659L252.387 133.782C252.392 134.217 252.217 134.64 251.896 134.968C251.574 135.297 251.128 135.509 250.642 135.564C249.235 135.722 247.188 135.454 245.278 133.356C244.182 132.076 243.34 130.64 242.788 129.108C242.788 129.108 240.565 124.093 238.891 115.508C238.243 112.095 237.866 108.644 237.762 105.184C237.649 102.355 236.957 97.7605 233.923 94.2067C233.923 94.2067 227.519 86.605 229.784 75.439C230.192 73.265 231.332 71.252 233.052 69.6651C234.773 68.0782 236.994 66.9919 239.423 66.5493C240.583 66.3554 241.762 66.2691 242.942 66.2917C244.458 66.3321 245.96 66.5568 247.407 66.9594C249.489 67.4851 254.066 68.2473 260.299 66.5598C260.299 66.5598 281.406 61.2029 281.779 75.6072C281.814 75.6072 281.631 84.6389 275.977 95.2108Z" fill="white"/>
<path d="M272.583 104.737C272.583 105.714 272.583 106.724 272.583 107.78C272.807 113.911 272.467 120.047 271.565 126.128C270.465 129.282 268.993 132.047 267.035 133.698C266.827 133.87 266.575 133.995 266.3 134.061C266.025 134.127 265.737 134.131 265.459 134.075C265.182 134.018 264.925 133.902 264.71 133.736C264.495 133.571 264.329 133.361 264.226 133.125C263.729 131.937 263.221 129.892 262.961 126.369C262.961 126.369 262.02 106.093 256.934 105.425C256.934 105.425 252.203 104.9 252.203 117.653L252.381 133.777C252.386 134.212 252.211 134.634 251.89 134.963C251.568 135.291 251.122 135.503 250.636 135.559C249.229 135.716 247.182 135.448 245.272 133.351C243.493 126.649 242.283 119.838 241.653 112.974C241.521 108.913 241.144 104.861 240.523 100.836C240.508 100.773 240.496 100.71 240.488 100.647C240.488 100.589 240.488 100.536 240.488 100.478C240.488 100.421 240.488 100.357 240.488 100.289C240.485 100.235 240.485 100.18 240.488 100.126C240.21 98.4491 239.897 96.7301 239.465 95.0426C239.465 95.0426 234.42 78.3619 250.21 82.373C251.152 82.6317 252.065 82.9679 252.937 83.3771C254.066 83.9028 256.798 84.5232 262.275 82.9829C262.275 82.9829 277.16 77.4524 273.955 92.3615C273.099 96.4439 272.64 100.584 272.583 104.737Z" fill="#19C0D7"/>
<g opacity="0.4">
<path d="M272.583 104.737C272.583 105.714 272.583 106.724 272.583 107.78C272.807 113.911 272.467 120.047 271.565 126.128C270.465 129.282 268.993 132.047 267.035 133.698C266.827 133.87 266.575 133.995 266.3 134.061C266.025 134.127 265.737 134.131 265.459 134.075C265.182 134.018 264.925 133.902 264.71 133.736C264.495 133.571 264.329 133.361 264.226 133.125C263.729 131.937 263.221 129.892 262.961 126.369C262.961 126.369 262.02 106.093 256.934 105.425C256.934 105.425 252.203 104.9 252.203 117.653L252.381 133.777C252.386 134.212 252.211 134.634 251.89 134.963C251.568 135.291 251.122 135.503 250.636 135.559C249.229 135.716 247.182 135.448 245.272 133.351C243.493 126.649 242.283 119.838 241.653 112.974C241.521 108.913 241.144 104.861 240.523 100.836C240.508 100.773 240.496 100.71 240.488 100.647C240.488 100.589 240.488 100.536 240.488 100.478C240.488 100.421 240.488 100.357 240.488 100.289C240.485 100.235 240.485 100.18 240.488 100.126C240.21 98.4491 239.897 96.7301 239.465 95.0426C239.465 95.0426 234.42 78.3619 250.21 82.373C251.152 82.6317 252.065 82.9679 252.937 83.3771C254.066 83.9028 256.798 84.5232 262.275 82.9829C262.275 82.9829 277.16 77.4524 273.955 92.3615C273.099 96.4439 272.64 100.584 272.583 104.737Z" fill="white"/>
</g>
<path d="M273.901 92.3615C273.063 96.4453 272.622 100.586 272.583 104.737C271.264 100.72 271.831 94.5431 271.831 94.5431C272.724 88.2767 269.833 86.5524 267.331 86.1897C265.919 86.004 264.478 86.1981 263.191 86.7469C256.213 89.6541 249.211 86.3316 249.211 86.3316C238.377 82.0366 239.926 96.6933 240.435 100.126C240.157 98.4491 239.843 96.7301 239.412 95.0426C239.412 95.0426 234.367 78.3619 250.157 82.373C251.099 82.6317 252.012 82.9679 252.883 83.3771C254.013 83.9028 256.745 84.5232 262.221 82.9829C262.221 82.9829 277.107 77.4524 273.901 92.3615Z" fill="#19C0D7"/>
<path d="M250.66 135.696C250.637 135.696 250.614 135.692 250.593 135.683C250.572 135.674 250.555 135.66 250.542 135.643C250.506 135.596 246.786 130.722 246.106 120.319C245.838 115.602 246.293 110.874 247.46 106.266C248.643 101.467 250.027 92.6769 246.029 87.7195C246.006 87.6916 245.996 87.6566 246.001 87.6221C246.007 87.5876 246.027 87.5564 246.059 87.5355C246.074 87.5247 246.092 87.5169 246.111 87.5126C246.131 87.5083 246.151 87.5076 246.17 87.5106C246.19 87.5136 246.208 87.5201 246.225 87.5299C246.241 87.5396 246.255 87.5523 246.266 87.5671C250.335 92.6086 248.945 101.483 247.75 106.319C246.585 110.904 246.132 115.609 246.402 120.303C247.076 130.628 250.748 135.443 250.784 135.491C250.795 135.505 250.803 135.521 250.808 135.538C250.812 135.554 250.813 135.572 250.809 135.589C250.806 135.606 250.799 135.623 250.789 135.637C250.778 135.652 250.764 135.665 250.748 135.674C250.722 135.689 250.691 135.696 250.66 135.696Z" fill="white"/>
<path d="M246.485 112.543C246.456 112.543 246.427 112.536 246.403 112.522C246.379 112.508 246.36 112.488 246.349 112.464C246.319 112.407 243.699 106.75 246.561 102.423C246.909 101.921 247.365 101.485 247.904 101.141C249.745 99.9323 251.046 98.1836 251.576 96.2043C251.679 95.7505 251.738 95.2897 251.754 94.827C251.813 93.6126 252.203 90.7107 254.557 89.9905C254.594 89.9786 254.634 89.9803 254.67 89.9951C254.705 90.0099 254.733 90.0366 254.746 90.0693C254.758 90.1028 254.754 90.1389 254.737 90.1702C254.719 90.2015 254.689 90.2256 254.652 90.2376C252.41 90.9262 252.091 93.9175 252.05 94.8375C252.03 95.3159 251.969 95.7922 251.866 96.2622C251.324 98.307 249.983 100.114 248.081 101.362C247.573 101.683 247.143 102.093 246.816 102.565C244.024 106.771 246.597 112.317 246.621 112.37C246.635 112.402 246.635 112.438 246.621 112.47C246.606 112.502 246.579 112.528 246.544 112.543H246.485Z" fill="white"/>
<path d="M248.809 96.0098C248.77 96.0098 248.732 95.996 248.704 95.9713C248.676 95.9467 248.661 95.9133 248.661 95.8784C248.7 94.483 248.145 93.1259 247.106 92.0789C246.068 91.032 244.623 90.3724 243.06 90.2323C243.041 90.231 243.022 90.2263 243.005 90.2184C242.987 90.2105 242.972 90.1997 242.959 90.1865C242.947 90.1733 242.937 90.158 242.931 90.1415C242.925 90.125 242.923 90.1076 242.924 90.0904C242.929 90.055 242.949 90.0226 242.98 90.0001C243.011 89.9775 243.05 89.9665 243.09 89.9695C243.143 89.9695 248.773 90.4952 248.957 95.8732C248.957 95.9077 248.942 95.9409 248.916 95.9663C248.889 95.9916 248.853 96.0072 248.815 96.0098H248.809Z" fill="white"/>
<path d="M265.598 134.234H265.563C265.544 134.23 265.526 134.223 265.51 134.213C265.494 134.203 265.481 134.19 265.471 134.176C265.461 134.161 265.455 134.144 265.452 134.127C265.45 134.11 265.451 134.093 265.456 134.076C265.492 133.95 269.005 121.57 265.285 110.656C264.946 109.69 264.521 108.749 264.013 107.843C262.369 104.868 259.04 97.0192 263.676 88.5027C263.683 88.4851 263.693 88.4689 263.708 88.4552C263.722 88.4416 263.739 88.4307 263.758 88.4233C263.777 88.416 263.798 88.4123 263.819 88.4126C263.84 88.4129 263.86 88.4171 263.879 88.4249C263.898 88.4328 263.915 88.4441 263.928 88.4581C263.942 88.4722 263.952 88.4886 263.958 88.5064C263.964 88.5242 263.966 88.5429 263.963 88.5613C263.96 88.5797 263.953 88.5973 263.942 88.6131C259.365 97.0244 262.653 104.784 264.279 107.728C264.794 108.647 265.224 109.601 265.563 110.582C269.3 121.57 265.776 134.018 265.74 134.139C265.732 134.167 265.714 134.192 265.688 134.209C265.662 134.226 265.63 134.235 265.598 134.234Z" fill="white"/>
<path d="M261.819 101.388C261.792 101.395 261.763 101.395 261.736 101.388C258.064 99.1693 258.413 96.6564 258.431 96.5618C258.438 96.5284 258.459 96.4986 258.489 96.4781C258.52 96.4577 258.558 96.4482 258.596 96.4514C258.634 96.4566 258.669 96.475 258.692 96.5025C258.715 96.53 258.726 96.5645 258.72 96.5986C258.72 96.5986 258.389 99.0484 261.902 101.167C261.933 101.188 261.954 101.218 261.962 101.252C261.969 101.286 261.963 101.321 261.943 101.351C261.927 101.365 261.907 101.375 261.886 101.382C261.865 101.388 261.842 101.39 261.819 101.388Z" fill="white"/>
<path d="M264.859 109.347C264.83 109.348 264.801 109.341 264.777 109.327C264.753 109.312 264.734 109.292 264.723 109.268C264.652 109.131 263.079 105.809 266 100.794C266 100.762 267.597 98.3965 266 93.8649C266 93.8649 265.178 92.0828 267.089 91.3205C267.106 91.3136 267.126 91.3098 267.145 91.3095C267.165 91.3091 267.184 91.3122 267.202 91.3186C267.22 91.3249 267.237 91.3344 267.251 91.3465C267.265 91.3585 267.276 91.3729 267.284 91.3889C267.292 91.4047 267.296 91.4218 267.296 91.4391C267.297 91.4565 267.293 91.4737 267.286 91.4898C267.279 91.5059 267.268 91.5206 267.255 91.5331C267.241 91.5455 267.225 91.5555 267.207 91.5623C265.563 92.2142 266.249 93.7125 266.278 93.7756C267.928 98.4438 266.338 100.825 266.278 100.925C263.428 105.809 264.995 109.131 265.013 109.163C265.027 109.195 265.027 109.231 265.013 109.263C264.999 109.295 264.971 109.322 264.936 109.336L264.859 109.347Z" fill="white"/>
<path d="M266.864 97.5449C266.836 97.5503 266.808 97.5503 266.781 97.5449C264.788 96.4093 263.262 94.1541 263.197 94.0594C263.185 94.0446 263.176 94.0276 263.172 94.0096C263.168 93.9916 263.168 93.973 263.172 93.955C263.176 93.937 263.185 93.92 263.197 93.9051C263.209 93.8902 263.224 93.8778 263.242 93.8685C263.26 93.8593 263.28 93.8535 263.301 93.8515C263.321 93.8495 263.342 93.8514 263.362 93.857C263.381 93.8626 263.4 93.8718 263.415 93.884C263.431 93.8963 263.443 93.9112 263.451 93.928C263.451 93.928 265.007 96.2253 266.941 97.3188C266.974 97.3382 266.997 97.3681 267.006 97.4024C267.015 97.4367 267.008 97.4726 266.988 97.5028C266.972 97.5176 266.953 97.5291 266.931 97.5364C266.91 97.5437 266.887 97.5466 266.864 97.5449Z" fill="white"/>
<path d="M366.158 38.8392C367.735 38.8392 369.014 37.7024 369.014 36.3C369.014 34.8977 367.735 33.7609 366.158 33.7609C364.58 33.7609 363.301 34.8977 363.301 36.3C363.301 37.7024 364.58 38.8392 366.158 38.8392Z" fill="white"/>
<path d="M376.885 38.8392C378.463 38.8392 379.742 37.7024 379.742 36.3C379.742 34.8977 378.463 33.7609 376.885 33.7609C375.308 33.7609 374.029 34.8977 374.029 36.3C374.029 37.7024 375.308 38.8392 376.885 38.8392Z" fill="white"/>
<path d="M387.613 38.8392C389.191 38.8392 390.47 37.7024 390.47 36.3C390.47 34.8977 389.191 33.7609 387.613 33.7609C386.036 33.7609 384.757 34.8977 384.757 36.3C384.757 37.7024 386.036 38.8392 387.613 38.8392Z" fill="white"/>
<path d="M145.168 159.121L119.324 130.013C119.324 130.013 127.131 122.9 136.664 121.901C139.75 121.623 142.725 120.724 145.363 119.272C146.9 118.398 148.328 117.379 149.621 116.234L174.767 144.885C174.767 144.885 173.655 150.194 159.763 152.77C159.758 152.791 151.141 153.964 145.168 159.121Z" fill="#19C0D7"/>
<path d="M145.168 159.121C145.168 159.121 151.839 154.963 163.785 155.236C163.785 155.236 173.247 154.889 175.613 150.442L172.656 147.729C172.656 147.729 169.51 151.062 159.787 152.791C159.758 152.791 151.005 154.211 145.168 159.121Z" fill="#E6E7E8"/>
<path d="M48.825 324.424C48.825 324.424 47.6422 327.925 49.8481 328.378C49.8481 328.378 66.744 332.094 65.8806 325.581L59.813 324.424H48.825Z" fill="#505050"/>
<path d="M65.9634 323.783C65.9634 323.783 66.2236 325.386 67.7376 325.328C67.7376 325.328 71.3746 325.781 70.6945 322.421L65.9634 323.783Z" fill="#505050"/>
<path d="M101.955 326.932C97.4312 325.807 85.9878 326.064 85.9878 326.064V323.662C85.9878 323.662 95.7871 323.662 100.974 324.819C101.881 325.025 102.804 325.174 103.735 325.265C106.497 325.502 112.222 325.875 116.947 325.344C118.112 329.86 101.955 326.932 101.955 326.932Z" fill="#505050"/>
<path d="M52.0421 213.921L57.1517 316.959C57.1517 316.959 64.615 310.845 71.2977 316.959V311.276C71.2701 310.163 71.7085 309.08 72.5278 308.238C73.2552 307.539 73.9767 305.909 73.6574 302.124C73.6574 302.124 73.0246 299.327 73.7342 294.764C73.7342 294.764 75.2245 283.587 75.4256 272.411L77.9272 232.142C77.9422 231.932 78.0464 231.734 78.2188 231.59C78.3911 231.445 78.6188 231.365 78.8557 231.364C79.0949 231.363 79.325 231.445 79.498 231.592C79.671 231.739 79.7735 231.94 79.7841 232.152L83.3325 305.567C83.429 307.189 83.7345 308.796 84.2432 310.356C84.5625 311.36 84.7577 312.58 84.2432 313.453C84.2432 313.453 81.8776 317.821 86.0174 319.041L98.7618 314.898C98.7618 314.898 100.583 313.779 99.6134 310.693C99.2995 309.646 99.389 308.535 99.8677 307.539C100.323 306.571 100.536 304.947 99.5365 302.318C99.0459 301.066 98.833 299.742 98.9096 298.418L104.824 210.099L99.8558 204.5L52.0421 213.921Z" fill="#505050"/>
<path d="M57.1222 316.97C56.2132 318.728 54.6187 320.134 52.6335 320.928C51.7613 321.292 50.9621 321.78 50.268 322.374C48.411 323.951 46.832 326.58 55.7442 327.447C55.7442 327.447 67.1403 329.718 65.9634 323.767C65.9634 323.767 70.2864 324.892 70.6945 322.406L71.2859 316.954C71.2859 316.954 65.6441 310.94 57.1222 316.97Z" fill="#19C0D7"/>
<path d="M116.959 325.344C112.228 325.87 106.509 325.502 103.747 325.265C102.816 325.174 101.893 325.025 100.985 324.819C95.7989 323.662 85.9996 323.662 85.9996 323.662V319.062L98.7736 314.856C99.3686 315.925 100.23 316.858 101.293 317.585C103.643 319.233 106.502 320.205 109.49 320.371C116.846 320.918 116.959 325.344 116.959 325.344Z" fill="#19C0D7"/>
<path d="M65.1887 147.624C65.1887 147.624 68.0333 157.859 70.2037 170.723L75.2186 191.678L76.1057 210.078C76.1057 210.078 86.0824 211.408 95.8462 210.078L83.5454 146.005L71.7176 144.953L65.1887 147.624Z" fill="#E6E7E8"/>
<path d="M66.4424 135.753V143.418L75.2186 149.869H77.4008L79.518 145.984V141.72L75.8396 135.086L67.5956 130.249L66.4424 134.402V135.753Z" fill="#F9B499"/>
<path d="M135.055 160.099L130.697 174.887L127.19 186.81C121.436 210.646 105.847 198.376 105.847 198.376C108.1 203.806 108.656 210.914 108.656 210.914L95.6097 214.909L83.5394 146.041C104.238 147.781 111.607 172.001 111.607 172.001L123.541 154.652L135.055 160.099Z" fill="#19C0D7"/>
<g opacity="0.4">
<path d="M135.055 160.099L130.697 174.887L127.19 186.81C121.436 210.646 105.847 198.376 105.847 198.376C108.1 203.806 108.656 210.914 108.656 210.914L95.6097 214.909L83.5394 146.041C104.238 147.781 111.607 172.001 111.607 172.001L123.541 154.652L135.055 160.099Z" fill="white"/>
</g>
<g opacity="0.4">
<path d="M83.5454 145.999L93.3624 158.106L90.6952 165.093L96.4494 167.837L92.9603 199.748L83.5454 145.999Z" fill="white"/>
</g>
<path d="M66.4424 143.418L65.1887 147.624L71.0434 155.236C71.0434 155.236 74.7633 152.487 75.2186 149.869L66.4424 143.418Z" fill="#19C0D7"/>
<g opacity="0.2">
<path d="M66.4424 143.418L65.1887 147.624L71.0434 155.236C71.0434 155.236 74.7633 152.487 75.2186 149.869L66.4424 143.418Z" fill="black"/>
</g>
<path d="M77.4008 149.868L82.8357 153.738L83.5454 145.999C83.5454 145.999 83.2438 143.318 79.518 141.72V145.983L77.4008 149.868Z" fill="#19C0D7"/>
<g opacity="0.2">
<path d="M77.4008 149.868L82.8357 153.738L83.5454 145.999C83.5454 145.999 83.2438 143.318 79.518 141.72V145.983L77.4008 149.868Z" fill="black"/>
</g>
<g opacity="0.4">
<path d="M107.449 162.885C107.449 162.885 108.472 171.706 107.449 176.327L111.589 171.959C111.589 171.959 109.33 165.834 107.449 162.885Z" fill="white"/>
</g>
<g opacity="0.4">
<path d="M130.697 174.887L127.19 186.81C121.436 210.646 105.847 198.376 105.847 198.376C105.847 198.376 101.819 183.13 99.8499 177.678C100.299 178.798 105.249 190.795 110.802 193.77C111.677 194.218 112.708 194.358 113.693 194.163C114.678 193.969 115.546 193.454 116.125 192.719L130.697 174.887Z" fill="white"/>
</g>
<path d="M124.848 155.236L127.663 148.717C127.663 148.717 127.663 143.103 128.497 140.984C129.039 139.626 129.387 138.213 129.532 136.778L129.656 135.554C129.678 135.301 129.807 135.066 130.016 134.894C130.226 134.722 130.501 134.628 130.785 134.628H130.833C130.982 134.628 131.13 134.655 131.269 134.706C131.407 134.757 131.532 134.832 131.638 134.926C131.743 135.02 131.827 135.132 131.883 135.255C131.94 135.378 131.969 135.51 131.968 135.643V140.374C131.965 140.809 132.06 141.241 132.248 141.643C132.436 142.045 132.713 142.409 133.062 142.714C134.192 143.702 136.504 145.037 135.848 148.596C135.848 148.596 137.279 150.173 137.953 150.967C138.03 151.057 137.782 151.235 137.74 151.335C137.557 151.751 136.936 152.807 135.055 153.711L134.032 159.589L124.848 155.236Z" fill="#F9B499"/>
<path d="M76.1057 155.236L79.9793 194.585L86.5378 201.525L89.9974 194.422L79.518 154.5L79.9793 151.703L77.4008 149.869H75.2186C74.8573 150.996 74.2549 152.051 73.4445 152.975L76.1057 155.236Z" fill="#19C0D7"/>
<path d="M79.518 140.847V145.647C79.518 145.647 72.1493 143.518 71.7295 139.733L79.518 140.847Z" fill="#F7A48B"/>
<path d="M83.1373 119.472C83.1373 119.472 84.2373 127.027 82.6524 128.898L81.8599 125.308C81.4431 124.232 80.7919 123.241 79.9438 122.39C79.9438 122.39 82.3448 121.465 83.1373 119.472Z" fill="#505050"/>
<g opacity="0.2">
<path d="M83.1373 119.472C83.1373 119.472 84.2373 127.027 82.6524 128.898L81.8599 125.308C81.4431 124.232 80.7919 123.241 79.9438 122.39C79.9438 122.39 82.3448 121.465 83.1373 119.472Z" fill="black"/>
</g>
<path d="M73.7611 119.889L72.2754 120.148C68.6023 120.788 66.2083 123.953 66.9283 127.218L68.7267 135.375C69.4467 138.64 73.008 140.768 76.6811 140.128L78.1668 139.869C81.8399 139.229 84.2339 136.063 83.5139 132.798L81.7155 124.642C80.9955 121.377 77.4342 119.249 73.7611 119.889Z" fill="#F9B499"/>
<path d="M63.0833 120.418C63.0833 120.418 54.3249 121.286 62.5334 131.889L67.1225 133.619C67.5058 133.764 67.8456 133.988 68.1146 134.271C68.3836 134.553 68.5745 134.888 68.672 135.249C69.0989 136.862 70.0476 138.329 71.4011 139.468C72.7546 140.608 74.4538 141.371 76.289 141.662C77.9466 142.023 79.6951 141.836 81.2094 141.137C81.9814 140.76 82.648 140.233 83.1599 139.596C83.6718 138.959 84.0158 138.228 84.1663 137.457C84.1663 137.457 85.8577 132.226 80.7836 133.251C79.031 133.608 77.3592 134.226 75.8396 135.08C75.0727 135.535 74.1783 135.791 73.2568 135.819C72.3353 135.847 71.4234 135.646 70.6235 135.238C70.0461 134.938 69.5742 134.5 69.2608 133.974C68.9474 133.449 68.805 132.856 68.8494 132.263C68.873 131.718 69.0156 131.182 69.2693 130.686C69.6828 129.789 69.8299 128.812 69.6963 127.85C69.5627 126.888 69.1529 125.973 68.5064 125.192C68.5064 125.192 67.2349 123.315 69.3521 123.378C69.3521 123.378 80.7126 125.218 83.2024 119.546C83.4545 118.996 83.5727 118.405 83.5492 117.811C83.5258 117.218 83.3612 116.635 83.0663 116.102C82.1438 114.436 79.7841 112.233 73.7638 112.811C71.0328 113.034 68.4708 114.085 66.5075 115.787C65.0465 117.124 63.8845 118.696 63.0833 120.418Z" fill="#505050"/>
<path d="M65.1887 135.99C66.8871 135.99 68.2639 134.766 68.2639 133.256C68.2639 131.746 66.8871 130.522 65.1887 130.522C63.4903 130.522 62.1135 131.746 62.1135 133.256C62.1135 134.766 63.4903 135.99 65.1887 135.99Z" fill="#F9B499"/>
<path d="M66.4424 141.941C66.4424 141.941 62.8941 145.153 54.7566 147.398C54.7566 147.398 39.5934 150.268 38.6117 162.643C38.6117 162.643 31.8758 195.468 44.7917 208.942C44.7917 208.942 47.0331 211.313 49.8422 212.065L50.268 219.13C50.268 219.13 73.0128 217.385 76.6616 215.635C76.6616 215.635 76.5256 195.169 75.8218 191.678L85.5088 174.955C85.5088 174.955 77.4363 172.705 75.2245 166.344L71.0493 170.587C71.0493 170.587 66.6435 149.869 65.1946 147.624L66.4483 143.418L66.4424 141.941Z" fill="#19C0D7"/>
<g opacity="0.4">
<path d="M66.4424 141.941C66.4424 141.941 62.8941 145.153 54.7566 147.398C54.7566 147.398 39.5934 150.268 38.6117 162.643C38.6117 162.643 31.8758 195.468 44.7917 208.942C44.7917 208.942 47.0331 211.313 49.8422 212.065L50.268 219.13C50.268 219.13 73.0128 217.385 76.6616 215.635C76.6616 215.635 76.5256 195.169 75.8218 191.678L85.5088 174.955C85.5088 174.955 77.4363 172.705 75.2245 166.344L71.0493 170.587C71.0493 170.587 66.6435 149.869 65.1946 147.624L66.4483 143.418L66.4424 141.941Z" fill="white"/>
</g>
<g opacity="0.4">
<path d="M46.1283 210.072C46.1283 210.072 37.63 199.911 48.0207 190.8L56.584 183.314L55.4604 167.217C55.4604 167.217 54.1948 180.57 48.7185 185.559C46.3497 187.759 44.2136 190.149 42.3375 192.698C41.1155 194.421 40.3986 196.389 40.2519 198.422C40.1052 200.455 40.5335 202.489 41.4977 204.337C42.6982 206.645 44.3541 209.131 46.1283 210.072Z" fill="white"/>
</g>
<g opacity="0.4">
<path d="M49.8422 212.018C49.8422 212.018 56.584 213.889 68.2343 201.409L75.8159 191.678L76.1057 194.443C76.1057 194.443 67.9505 210.393 50.2621 219.151L49.8422 212.018Z" fill="white"/>
</g>
<g opacity="0.4">
<path d="M66.4424 141.941V143.444L65.1887 147.65C66.1172 149.532 66.7559 152.339 67.9505 156.945C69.1865 161.718 70.2391 166.281 71.0434 170.613L65.1887 176.354C65.1887 176.354 58.5474 170.855 62.0543 168.09C62.0543 168.09 66.5489 165.719 64.5855 163.595L60.5995 160.393C60.1089 159.999 59.742 159.498 59.5347 158.939C59.3274 158.381 59.2867 157.784 59.4167 157.207C60.3216 153.275 62.7463 144.438 66.4424 141.941Z" fill="white"/>
</g>
<path d="M75.2186 166.344L81.9368 158.238C81.9368 158.238 83.1196 156.082 89.4297 157.36L96.5263 156.103C96.6899 156.075 96.8585 156.078 97.0202 156.115C97.1819 156.151 97.3326 156.218 97.4615 156.312C97.5904 156.406 97.6943 156.524 97.7657 156.658C97.8371 156.792 97.8744 156.938 97.8747 157.086C97.8731 157.28 97.8086 157.47 97.689 157.632C97.5695 157.794 97.3999 157.922 97.2005 158.001L91.8366 160.104C92.1702 160.85 92.1669 161.681 91.8275 162.424C91.4881 163.168 90.8388 163.766 90.0152 164.094C90.0152 164.094 91.6296 168.258 85.2545 169.551C85.0547 169.586 84.8653 169.657 84.6986 169.761C83.2931 170.642 82.0296 171.689 80.9433 172.873C78.2079 171.386 76.1736 169.065 75.2186 166.344Z" fill="#F9B499"/>
<path d="M88.3119 161.613C88.2527 161.613 88.1948 161.597 88.1454 161.568C88.0959 161.539 88.0572 161.498 88.034 161.45C88.0196 161.418 88.0124 161.383 88.013 161.349C88.0135 161.314 88.0217 161.28 88.0371 161.248C88.0524 161.217 88.0747 161.188 88.1026 161.164C88.1305 161.14 88.1634 161.121 88.1996 161.108L91.7065 159.857C91.7796 159.832 91.8604 159.834 91.9321 159.862C92.0038 159.889 92.0607 159.94 92.0909 160.004C92.1063 160.036 92.1144 160.07 92.1146 160.104C92.1149 160.139 92.1074 160.173 92.0925 160.205C92.0776 160.237 92.0556 160.266 92.0279 160.29C92.0002 160.314 91.9674 160.333 91.9312 160.346L88.4184 161.592C88.3853 161.606 88.3488 161.613 88.3119 161.613Z" fill="#F7A48B"/>
<path d="M86.869 165.256C86.8301 165.261 86.7905 165.259 86.7524 165.251C86.7143 165.243 86.6785 165.228 86.6469 165.207C86.5831 165.165 86.5407 165.102 86.5289 165.033C86.5172 164.963 86.537 164.892 86.5842 164.835C86.6313 164.778 86.7018 164.741 86.7803 164.73L89.9087 163.831C89.9832 163.81 90.0643 163.815 90.1342 163.847C90.204 163.878 90.2569 163.933 90.2813 163.999C90.304 164.066 90.2969 164.137 90.2616 164.199C90.2264 164.261 90.1656 164.308 90.092 164.331L86.9636 165.23L86.869 165.256Z" fill="#F7A48B"/>
<path d="M86.5378 156.971L92.6586 155.478C92.9463 155.408 93.2518 155.426 93.527 155.528C93.8022 155.63 94.0314 155.81 94.1785 156.04L94.7699 156.971L87.8152 159.599L86.5378 156.971Z" fill="#F9B499"/>
<path d="M87.2356 158.679C87.1726 158.679 87.1114 158.661 87.0605 158.628C87.0095 158.595 86.9715 158.549 86.9518 158.495C86.9296 158.428 86.9383 158.355 86.976 158.293C87.0136 158.231 87.0771 158.185 87.1528 158.164L94.3619 156.214C94.4364 156.194 94.5166 156.201 94.5852 156.234C94.6539 156.266 94.7053 156.321 94.7285 156.387C94.7509 156.454 94.743 156.526 94.7066 156.588C94.6702 156.65 94.608 156.697 94.5334 156.718L87.3243 158.669C87.2958 158.678 87.2657 158.681 87.2356 158.679Z" fill="#F7A48B"/>
<g opacity="0.2">
<path d="M76.4665 155.42C76.4007 155.42 76.3367 155.401 76.2851 155.364C76.2335 155.328 76.1974 155.277 76.1826 155.22C76.1644 155.153 76.1765 155.081 76.2162 155.022C76.2559 154.962 76.3202 154.918 76.3955 154.9L79.0922 154.321C79.169 154.305 79.2498 154.317 79.3172 154.353C79.3847 154.389 79.4334 154.448 79.453 154.516C79.4708 154.583 79.4577 154.654 79.4167 154.714C79.3757 154.773 79.3101 154.815 79.2342 154.831L76.5374 155.415L76.4665 155.42Z" fill="black"/>
</g>
<path d="M85.5029 174.955C85.5029 174.955 85.5561 172.805 82.7766 171.086C82.1126 171.642 81.494 172.239 80.9255 172.873C82.309 173.791 83.8565 174.495 85.5029 174.955Z" fill="#19C0D7"/>
<g opacity="0.5">
<path d="M85.5029 174.955C85.5029 174.955 85.5561 172.805 82.7766 171.086C82.1126 171.642 81.494 172.239 80.9255 172.873C82.309 173.791 83.8565 174.495 85.5029 174.955Z" fill="white"/>
</g>
<path d="M411.517 321.88C411.517 321.88 405.662 324.803 408.744 326.89C408.744 326.89 413.013 328.819 418.975 325.202C418.975 325.202 426.899 320.881 424.155 319.183L411.517 321.88Z" fill="#505050"/>
<path d="M460.744 326.842C460.368 327.221 459.839 327.452 459.272 327.484C453.843 327.941 447.982 324.33 447.982 324.33C443.736 321.964 445.315 319.63 445.315 319.63L445.374 320.061C445.441 320.561 445.7 321.025 446.107 321.375C447.516 322.58 449.224 323.472 451.093 323.978C452.963 324.485 454.94 324.593 456.865 324.293C456.865 324.293 459.266 323.594 456.687 321.832C461.673 324.487 461.448 326.08 460.744 326.842Z" fill="#505050"/>
<path d="M453.713 193.46L463.258 214.956C463.529 215.549 463.672 216.182 463.678 216.823C463.668 217.438 463.847 218.044 464.195 218.577C464.543 219.109 465.047 219.548 465.653 219.845L470.153 222.532C470.153 222.532 471.602 222.663 470.153 220.86C471.738 221.622 473.247 222.502 474.666 223.488C474.71 223.523 474.764 223.545 474.822 223.552C474.881 223.559 474.94 223.55 474.992 223.527C475.045 223.504 475.089 223.468 475.118 223.422C475.147 223.377 475.161 223.325 475.156 223.273C475.127 222.39 474.53 220.392 470.875 216.875C470.875 216.875 468.125 215.198 467.835 212.88L462.034 189.607L453.713 193.46Z" fill="#F9B499"/>
<path d="M410.376 180.244L383.089 179.445C382.281 179.43 381.476 179.355 380.682 179.219C380.208 179.12 379.715 179.116 379.238 179.207C378.762 179.298 378.314 179.481 377.927 179.744C377.446 180.093 376.933 180.406 376.395 180.68C375.648 181.051 374.878 181.385 374.088 181.679C374.034 181.704 373.988 181.741 373.956 181.788C373.923 181.834 373.906 181.887 373.906 181.942C373.906 181.996 373.923 182.05 373.956 182.096C373.988 182.143 374.034 182.18 374.088 182.205C374.638 182.405 375.614 182.489 377.229 181.821C377.044 182.979 376.511 184.071 375.687 184.982C374.863 185.893 373.777 186.59 372.545 186.999C372.545 186.999 367.004 188.303 370.44 189.565C370.44 189.565 370.635 191.194 374.36 189.565C377.022 188.016 379.472 186.199 381.664 184.15C381.834 183.984 382.051 183.861 382.292 183.795C382.534 183.73 382.791 183.723 383.036 183.777C386.584 184.528 400.464 187.409 407.123 187.746C407.106 187.783 411.854 187.514 410.376 180.244Z" fill="#F9B499"/>
<path d="M370.422 189.864C370.363 189.865 370.306 189.849 370.257 189.82C370.209 189.791 370.171 189.75 370.15 189.701C370.12 189.637 370.121 189.565 370.151 189.501C370.18 189.437 370.238 189.386 370.309 189.36C372.173 188.621 373.914 187.658 375.484 186.5C375.544 186.455 375.622 186.432 375.7 186.437C375.778 186.442 375.852 186.474 375.904 186.526C375.932 186.55 375.953 186.579 375.968 186.61C375.983 186.642 375.991 186.676 375.991 186.71C375.991 186.744 375.983 186.778 375.968 186.81C375.953 186.841 375.932 186.87 375.904 186.894C374.293 188.093 372.502 189.086 370.581 189.843C370.532 189.865 370.476 189.872 370.422 189.864Z" fill="#F7A48B"/>
<path d="M419.117 139.649C418.748 140.719 418.259 141.753 417.656 142.735C417.327 143.209 417.086 143.728 416.94 144.27C416.692 145.221 416.698 146.43 418.253 146.483C418.253 146.483 418.502 152.203 423.576 151.656C423.576 151.656 424.971 152.97 427.278 151.971V144.044L419.117 139.649Z" fill="#505050"/>
<path d="M427.248 149.353V153.033L425.427 153.417L429.673 159.289L437.881 151.982C437.473 151.663 437.155 151.263 436.953 150.815L435.084 144.044C435.084 144.044 433.487 149.301 427.248 149.353Z" fill="#F9B499"/>
<path d="M456.504 193.686C453.861 193.975 451.844 192.877 450.312 191.2C446.681 187.215 445.794 179.928 445.794 179.928C445.291 188.566 447.326 193.939 448.514 196.278C448.589 196.426 448.62 196.589 448.605 196.751C448.59 196.913 448.53 197.069 448.43 197.204C448.33 197.34 448.193 197.452 448.033 197.529C447.872 197.606 447.692 197.646 447.509 197.645H412.499C415.16 194.59 415.314 188.182 415.314 188.182L407.105 187.767C411.718 186.584 409.844 180.191 409.844 180.191L410.346 180.055C410.666 179.968 410.954 179.806 411.179 179.585C411.404 179.365 411.557 179.095 411.624 178.803L413.753 169.341C415.627 157.528 425.421 153.417 425.421 153.417L431.258 154.821L437.881 151.945C453.571 153.522 455.623 160.882 455.623 160.882L455.741 161.329L461.478 182.357C461.478 182.357 465.422 192.714 456.504 193.686Z" fill="#19C0D7"/>
<g opacity="0.2">
<path d="M415.314 188.203C415.314 188.203 416.089 180.475 415.314 177.742C415.314 177.742 426.042 179.208 433.588 178.651C435.824 178.511 437.959 177.768 439.707 176.52C441.455 175.273 442.733 173.58 443.369 171.67C443.577 171.002 443.7 170.316 443.736 169.625C443.736 169.625 445.836 175.46 445.794 179.934C445.794 179.934 444.789 188.345 448.609 196.294C448.681 196.442 448.71 196.603 448.694 196.763C448.678 196.924 448.617 197.078 448.517 197.213C448.418 197.347 448.282 197.457 448.123 197.534C447.963 197.61 447.785 197.65 447.604 197.65H412.499C412.499 197.65 414.977 195.358 415.314 188.203Z" fill="black"/>
</g>
<g opacity="0.2">
<path d="M456.504 193.686C453.861 193.975 451.844 192.877 450.312 191.2C462.495 193.161 455.765 161.355 455.765 161.355L461.501 182.383C461.501 182.383 465.422 192.714 456.504 193.686Z" fill="black"/>
</g>
<path d="M412.499 197.666C409.463 203.836 408.242 210.591 408.951 217.296L412.836 293.402H429.472V219.367L441.3 294.906H456.126L455.333 223.531C455.317 221.947 455.179 220.366 454.919 218.799C454.139 214.021 451.962 204.164 446.723 197.634L412.499 197.666Z" fill="#505050"/>
<path d="M416.798 293.381L417.236 317.38C417.241 317.609 417.181 317.836 417.063 318.04C416.944 318.244 416.77 318.418 416.556 318.547C414.814 319.581 413.132 320.694 411.517 321.88C411.38 321.984 411.272 322.116 411.2 322.263C411.129 322.411 411.097 322.571 411.106 322.731C411.115 322.892 411.166 323.048 411.253 323.188C411.341 323.329 411.464 323.449 411.612 323.541C412.398 324.067 413.776 324.54 416.035 324.188C417.383 323.961 418.666 323.496 419.809 322.821L422.896 321.034C423.25 320.83 423.547 320.558 423.765 320.237C423.984 319.917 424.117 319.556 424.155 319.183L426.834 293.381H416.798Z" fill="#F9B499"/>
<path d="M456.847 324.309C454.922 324.609 452.945 324.501 451.076 323.994C449.206 323.487 447.498 322.595 446.09 321.391C445.682 321.041 445.423 320.577 445.357 320.077L445.315 319.63L441.767 294.922H451.17L451.081 317.08C451.081 317.411 451.168 317.738 451.334 318.035C451.5 318.331 451.742 318.589 452.039 318.789L456.143 321.517C456.344 321.638 456.522 321.754 456.687 321.864C459.248 323.609 456.847 324.309 456.847 324.309Z" fill="#F9B499"/>
<path d="M427.301 148.496L427.248 153.059C427.248 153.059 433.647 151.714 433.718 146.415L427.301 148.496Z" fill="#F7A48B"/>
<path d="M428.058 127.268H426.432C422.392 127.268 419.117 130.18 419.117 133.771V142.85C419.117 146.442 422.392 149.353 426.432 149.353H428.058C432.099 149.353 435.374 146.442 435.374 142.85V133.771C435.374 130.18 432.099 127.268 428.058 127.268Z" fill="#F9B499"/>
<path d="M435.953 143.103C437.443 143.103 438.65 142.029 438.65 140.705C438.65 139.381 437.443 138.308 435.953 138.308C434.464 138.308 433.257 139.381 433.257 140.705C433.257 142.029 434.464 143.103 435.953 143.103Z" fill="#F9B499"/>
<path d="M419.117 137.704C418.455 137.094 418.003 136.328 417.816 135.497C417.628 134.666 417.712 133.804 418.058 133.014C418.058 133.014 414.35 127.084 420.648 125.355C422.184 125.157 423.743 125.157 425.279 125.355C427.184 125.656 429.139 125.605 431.021 125.208C431.021 125.208 435.285 124.035 439.265 128.567C439.265 128.567 441.95 132.683 445.102 134.003C445.102 134.003 450.194 136.142 450.194 137.683C450.194 137.683 448.621 137.93 449.011 139.165C449.011 139.165 456.232 141.226 452.808 149.332C452.808 149.332 451.791 146.246 449.567 146.178C449.567 146.178 450.306 150.794 445.303 150.873C445.303 150.873 443.434 149.627 442.553 151.067C442.341 151.448 442.024 151.776 441.631 152.019C440.543 152.649 438.425 153.38 436.971 150.794L435.084 144.044C435.183 143.711 435.26 143.374 435.315 143.034C435.906 143.154 436.526 143.091 437.071 142.854C437.616 142.618 438.055 142.224 438.313 141.736C438.489 141.421 438.588 141.076 438.602 140.724C438.617 140.372 438.546 140.022 438.396 139.696C438.332 139.566 438.253 139.443 438.159 139.328C438.159 139.328 437.296 141.384 435.38 141.005C435.321 140.522 435.11 140.063 434.771 139.682C434.432 139.301 433.979 139.012 433.464 138.85C433.464 138.85 430.43 138.324 430.116 134.775C430.116 134.775 423.15 137.11 421.896 129.056C421.003 129.719 420.29 130.553 419.808 131.495C419.327 132.436 419.091 133.463 419.117 134.497V137.704Z" fill="#505050"/>
<path d="M470.153 221.123C470.117 221.123 470.082 221.118 470.048 221.106C470.015 221.094 469.984 221.077 469.958 221.054L466.712 218.473C466.653 218.426 466.617 218.361 466.613 218.291C466.608 218.221 466.635 218.152 466.688 218.1C466.74 218.048 466.814 218.016 466.893 218.012C466.972 218.008 467.049 218.032 467.108 218.079L470.349 220.665C470.377 220.689 470.399 220.718 470.415 220.749C470.43 220.781 470.438 220.815 470.438 220.849C470.438 220.884 470.43 220.918 470.415 220.95C470.399 220.981 470.377 221.01 470.349 221.033C470.299 221.084 470.229 221.116 470.153 221.123Z" fill="#F7A48B"/>
<path d="M207.577 265.209C206.432 266.904 205.848 268.852 205.892 270.828C206.152 282.273 205.986 321.165 192.006 322.011C192.006 322.011 186.796 323 184.909 300.815C184.909 300.815 183.792 277.3 172.608 278.293H164.075C164.075 278.293 159.645 277.41 156.31 288.282L152.081 311.991C152.081 311.991 150.751 323.941 142.968 322.016C142.968 322.016 131.572 314.52 132.678 269.094C132.712 267.741 132.249 266.416 131.359 265.319C129.076 262.501 124.73 255.273 124.073 240.653C124.073 240.653 119.851 216.738 139.857 212.391C139.857 212.391 148.775 209.315 157.185 214.667C157.475 214.846 157.747 215.046 158.025 215.235C159.61 216.334 167.789 221.365 178.587 216.964C180.917 216.013 183.318 215.161 185.436 213.91L185.554 213.847C188.877 211.87 196.642 208.758 205.691 215.319C211.049 219.283 214.553 224.88 215.519 231.017C216.844 238.881 216.767 251.635 207.577 265.209Z" fill="#E6E7E8"/>
<path d="M167.765 242.43H158.865C154.877 242.43 151.644 245.304 151.644 248.849V260.367C151.644 263.912 154.877 266.786 158.865 266.786H167.765C171.753 266.786 174.986 263.912 174.986 260.367V248.849C174.986 245.304 171.753 242.43 167.765 242.43Z" fill="#19C0D7"/>
<path d="M207.577 265.209C206.432 266.904 205.848 268.851 205.892 270.828C206.152 282.273 205.986 321.165 192.006 322.011C205.49 301.393 192.313 266.812 192.313 266.812C212.781 226.054 195.619 216.271 185.424 213.931L185.542 213.868C188.866 211.891 196.631 208.779 205.679 215.34C211.037 219.304 214.542 224.901 215.508 231.038C216.844 238.881 216.767 251.635 207.577 265.209Z" fill="#D1D3D4"/>
<path d="M167.688 247.371H159.829C158.009 247.371 156.534 248.682 156.534 250.3V258.474C156.534 260.091 158.009 261.402 159.829 261.402H167.688C169.507 261.402 170.982 260.091 170.982 258.474V250.3C170.982 248.682 169.507 247.371 167.688 247.371Z" fill="#E6E7E8"/>
<path d="M290.212 266.865C289.069 268.56 288.487 270.508 288.532 272.484C288.792 283.929 288.627 322.816 274.646 323.667C274.646 323.667 269.436 324.656 267.55 302.471C267.55 302.471 266.426 278.951 255.249 279.949H246.703C246.703 279.949 242.274 279.061 238.938 289.938L234.71 313.647C234.71 313.647 233.379 325.591 225.597 323.673C225.597 323.673 214.201 316.171 215.307 270.75C215.339 269.397 214.874 268.071 213.982 266.975C211.699 264.157 207.352 256.929 206.702 242.309C206.702 242.309 202.479 218.394 222.486 214.047C222.486 214.047 231.404 210.971 239.808 216.323C240.098 216.502 240.399 216.696 240.648 216.891C242.238 217.99 250.417 223.021 261.21 218.615C263.546 217.669 265.941 216.817 268.064 215.566L268.177 215.498C271.5 213.526 279.271 210.414 288.319 216.975C293.676 220.939 297.178 226.536 298.142 232.673C299.473 240.537 299.396 253.286 290.212 266.865Z" fill="#E6E7E8"/>
<path d="M253.972 239.875H245.071C241.083 239.875 237.85 242.749 237.85 246.294V257.812C237.85 261.357 241.083 264.231 245.071 264.231H253.972C257.959 264.231 261.192 261.357 261.192 257.812V246.294C261.192 242.749 257.959 239.875 253.972 239.875Z" fill="#19C0D7"/>
<path d="M290.212 266.865C289.069 268.56 288.487 270.508 288.532 272.485C288.792 283.929 288.627 322.816 274.646 323.667C288.13 303.049 274.954 268.468 274.954 268.468C295.422 227.715 278.254 217.927 268.064 215.593L268.177 215.524C271.5 213.553 279.271 210.441 288.319 217.001C293.676 220.966 297.178 226.563 298.142 232.699C299.473 240.537 299.396 253.286 290.212 266.865Z" fill="#D1D3D4"/>
<path d="M372.574 265.098C371.415 266.797 370.82 268.752 370.859 270.739C371.12 282.184 370.954 321.07 356.974 321.922C356.974 321.922 351.763 322.91 349.877 300.72C349.877 300.72 348.753 277.205 337.576 278.204H329.03C329.03 278.204 324.601 277.316 321.266 288.193L317.037 311.907C317.037 311.907 315.707 323.851 307.924 321.927C307.924 321.927 296.528 314.431 297.634 269.009C297.665 267.655 297.2 266.328 296.309 265.23C294.032 262.417 289.68 255.189 289.029 240.569C289.029 240.569 284.806 216.654 304.813 212.307C304.813 212.307 313.731 209.231 322.141 214.578C322.431 214.762 322.703 214.956 322.981 215.151C324.566 216.25 332.744 221.281 343.543 216.875C345.873 215.924 348.274 215.077 350.391 213.821L350.51 213.758C353.833 211.786 361.598 208.674 370.617 215.235C375.973 219.2 379.477 224.796 380.446 230.933C381.8 238.776 381.723 251.524 372.574 265.098Z" fill="#E6E7E8"/>
<path d="M372.574 265.098C371.415 266.797 370.82 268.753 370.859 270.739C371.12 282.184 370.954 321.07 356.974 321.922C370.457 301.304 357.281 266.696 357.281 266.696C377.749 225.938 360.587 216.155 350.391 213.816L350.51 213.752C353.833 211.781 361.598 208.669 370.617 215.23C375.973 219.195 379.477 224.791 380.446 230.927C381.8 238.776 381.723 251.524 372.574 265.098Z" fill="#D1D3D4"/>
<path d="M329.409 237.047H320.509C316.521 237.047 313.288 239.92 313.288 243.465V254.984C313.288 258.529 316.521 261.403 320.509 261.403H329.409C333.397 261.403 336.63 258.529 336.63 254.984V243.465C336.63 239.92 333.397 237.047 329.409 237.047Z" fill="#19C0D7"/>
<path d="M329.332 241.988H321.473C319.653 241.988 318.179 243.299 318.179 244.916V253.091C318.179 254.708 319.653 256.019 321.473 256.019H329.332C331.151 256.019 332.626 254.708 332.626 253.091V244.916C332.626 243.299 331.151 241.988 329.332 241.988Z" fill="#E6E7E8"/>
<path d="M170.982 252.055L318.179 248.297V251.829L170.982 255.804V252.055Z" fill="#19C0D7"/>
<g opacity="0.2">
<path d="M170.982 252.055L318.179 248.297V251.829L170.982 255.804V252.055Z" fill="black"/>
</g>
<path d="M253.895 244.816H246.035C244.216 244.816 242.741 246.127 242.741 247.745V255.919C242.741 257.537 244.216 258.848 246.035 258.848H253.895C255.714 258.848 257.189 257.537 257.189 255.919V247.745C257.189 246.127 255.714 244.816 253.895 244.816Z" fill="#E6E7E8"/>
<path d="M375.064 118.868H294.482V120.539H375.064V118.868Z" fill="#19C0D7"/>
<g opacity="0.2">
<path d="M375.064 118.868H294.482V120.539H375.064V118.868Z" fill="black"/>
</g>
</svg>
